<?xml version="1.0" encoding="UTF-8" standalone="no"?>
<!-- Created with Inkscape (http://www.inkscape.org/) -->

<svg
   width="1200"
   height="1000"
   id="track-svg"
   sodipodi:version="0.32"
   inkscape:version="1.3.2 (091e20e, 2023-11-25)"
   sodipodi:docname="track.svg"
   version="1.0"
   inkscape:output_extension="org.inkscape.output.svg.inkscape"
   xmlns:inkscape="http://www.inkscape.org/namespaces/inkscape"
   xmlns:sodipodi="http://sodipodi.sourceforge.net/DTD/sodipodi-0.dtd"
   xmlns="http://www.w3.org/2000/svg"
   xmlns:svg="http://www.w3.org/2000/svg"
   xmlns:rdf="http://www.w3.org/1999/02/22-rdf-syntax-ns#"
   xmlns:cc="http://creativecommons.org/ns#"
   xmlns:dc="http://purl.org/dc/elements/1.1/">
  <defs
     id="defs1903" />
  <sodipodi:namedview
     id="base"
     pagecolor="#ffffff"
     bordercolor="#666666"
     borderopacity="1.0"
     inkscape:pageopacity="0.0"
     inkscape:pageshadow="2"
     inkscape:zoom="1.1877807"
     inkscape:cx="415.05978"
     inkscape:cy="489.98943"
     inkscape:document-units="px"
     inkscape:current-layer="layer2"
     gridtolerance="10000"
     inkscape:window-width="2480"
     inkscape:window-height="1387"
     inkscape:window-x="80"
     inkscape:window-y="25"
     inkscape:showpageshadow="2"
     inkscape:pagecheckerboard="0"
     inkscape:deskcolor="#d1d1d1"
     inkscape:window-maximized="1" />
  <metadata
     id="metadata1906">
    <rdf:RDF>
      <cc:Work
         rdf:about="">
        <dc:format>image/svg+xml</dc:format>
        <dc:type
           rdf:resource="http://purl.org/dc/dcmitype/StillImage" />
      </cc:Work>
    </rdf:RDF>
  </metadata>
  <g
     inkscape:groupmode="layer"
     id="layer2"
     inkscape:label="SVG">
    <path
       style="fill:none;fill-rule:evenodd;stroke:#000000;stroke-width:16.087;stroke-linecap:butt;stroke-linejoin:miter;stroke-miterlimit:4;stroke-dasharray:none;stroke-opacity:1"
       d="m 187.76117,878.14669 c 0,0 -30.17716,-37.68304 -38.10005,-89.39027 0,0 -7.50589,-64.63413 -7.08888,-98.41044 0,0 3.33595,-87.15186 15.84574,-125.93218 0,0 12.09282,-56.29414 36.69547,-97.1595 l 33.35951,-53.79225 c 0,0 6.11013,-21.75383 27.30647,-13.7301 0,0 24.40071,6.22423 63.18112,6.22423 l 231.84852,-5.00391 c 0,0 16.6797,-0.83397 46.28629,-11.67588 0,0 20.43269,-5.83778 45.03526,-5.83778 l 102.16356,-4.58708 c 0,0 7.92293,3.33603 32.10851,-12.92677 l 25.01963,-21.26662 c 0,0 13.76079,-19.18176 10.84176,-26.68762 0,0 0.83407,-10.84185 -2.50194,-19.59862 l -31.69148,-63.38317 c 0,0 -7.08885,-13.2554 -5.13777,-27.89435 0,0 0.0442,-11.57062 4.70643,-15.84582 L 919.01457,57.349518 c 0,0 17.51361,-16.262873 26.68755,-16.262873 0,0 15.01182,-3.752914 13.7608,14.177849 0,0 -0.41694,57.128096 4.16991,78.811846 l 6.25491,28.77245 c 0,0 1.66799,17.93081 15.84586,15.42891 0,0 12.09275,-0.41701 12.5098,-15.42891 l -1.25108,-43.36726 c 0,0 -4.58698,-22.100717 21.68368,-22.934692 l 42.5333,-1.667967 c 0,0 17.9308,-2.501974 14.1778,21.266649 l -12.0927,51.7073 c 0,0 -30.8577,105.91637 -95.90871,178.47329 0,0 -87.15166,70.47186 -165.12935,87.56862 0,0 -25.85365,9.17389 -87.98571,11.25891 l -147.63319,3.52904 c 0,0 -6.17607,7.54093 -5.82052,14.81869 l -1.47487,14.06793 c 0,0 -13.00561,1.39145 -18.09316,1.5232 h -35.08881 l -14.98114,-8.08532 c 0,0 -14.17774,-12.50984 -29.60655,-9.17384 l -92.98959,0.41702 -63.80001,2.5019 c 0,0 -28.77254,-1.25089 -39.61442,25.01961 0,0 -16.87289,32.78469 -31.20853,115.91919 l 9.33594,9.65284 c 0,0 5.07,2.98502 5.99623,14.97708 l 1.80095,90.48237 c 0,0 -0.10238,13.3269 -19.28418,38.34655 0,0 -13.36912,17.04557 -4.6124,51.23909 0,0 13.36928,40.49946 50.06481,68.43807 0,0 27.10454,25.01961 45.03532,31.69149 0,0 22.10066,8.33993 19.1818,29.18955 0,0 0,15.42879 -21.26679,14.59477 L 206.04734,941.79309 c 0,0 -20.91103,0.38636 -14.6561,-20.04636 0,0 12.67226,-24.84843 -3.63007,-43.60004 z"
       id="track_old"
       sodipodi:nodetypes="ccccccccccccccccccccccccccccccccccccccccccccccccccccccccc" />
    <g
       style="display:inline"
       transform="matrix(-1.20702,-1.4334957,1.4334957,-1.20702,552.70486,1624.8399)"
       id="g12355">
      <rect
         width="3.6360872"
         height="3.794178"
         x="503.13138"
         y="-225.66817"
         transform="rotate(40.092875)"
         style="fill:#000000;fill-opacity:1;fill-rule:nonzero;stroke:none;stroke-width:1.3;stroke-miterlimit:4;stroke-dasharray:none;stroke-opacity:1"
         id="rect9376" />
      <rect
         width="3.6360872"
         height="3.794178"
         x="503.13843"
         y="-210.80884"
         transform="rotate(40.092875)"
         style="fill:#000000;fill-opacity:1;fill-rule:nonzero;stroke:none;stroke-width:1.3;stroke-miterlimit:4;stroke-dasharray:none;stroke-opacity:1"
         id="rect10347" />
      <rect
         width="3.6360872"
         height="3.794178"
         x="503.22794"
         y="-233.16934"
         transform="rotate(40.092875)"
         style="fill:#000000;fill-opacity:1;fill-rule:nonzero;stroke:none;stroke-width:1.3;stroke-miterlimit:4;stroke-dasharray:none;stroke-opacity:1"
         id="rect10349" />
      <rect
         width="3.6360872"
         height="3.794178"
         x="503.10162"
         y="-221.97508"
         transform="rotate(40.092875)"
         style="fill:#ffffff;fill-opacity:1;fill-rule:nonzero;stroke:none;stroke-width:1.3;stroke-miterlimit:4;stroke-dasharray:none;stroke-opacity:1"
         id="rect10351" />
      <rect
         width="3.6360872"
         height="3.794178"
         x="503.14481"
         y="-229.39552"
         transform="rotate(40.092875)"
         style="fill:#ffffff;fill-opacity:1;fill-rule:nonzero;stroke:none;stroke-width:1.3;stroke-miterlimit:4;stroke-dasharray:none;stroke-opacity:1"
         id="rect12293" />
      <rect
         width="3.6360872"
         height="3.794178"
         x="503.1427"
         y="-214.46121"
         transform="rotate(40.092875)"
         style="fill:#ffffff;fill-opacity:1;fill-rule:nonzero;stroke:none;stroke-width:1.3;stroke-miterlimit:4;stroke-dasharray:none;stroke-opacity:1"
         id="rect12295" />
      <rect
         width="3.6360872"
         height="3.794178"
         x="503.14166"
         y="-206.99403"
         transform="rotate(40.092875)"
         style="fill:#ffffff;fill-opacity:1;fill-rule:nonzero;stroke:none;stroke-width:1.3;stroke-miterlimit:4;stroke-dasharray:none;stroke-opacity:1"
         id="rect12297" />
      <rect
         width="3.6360872"
         height="3.794178"
         x="506.87115"
         y="-233.22285"
         transform="rotate(40.092875)"
         style="fill:#ffffff;fill-opacity:1;fill-rule:nonzero;stroke:none;stroke-width:1.3;stroke-miterlimit:4;stroke-dasharray:none;stroke-opacity:1"
         id="rect12299" />
      <rect
         width="3.6360872"
         height="3.794178"
         x="503.1145"
         y="-203.19873"
         transform="rotate(40.092875)"
         style="fill:#000000;fill-opacity:1;fill-rule:nonzero;stroke:none;stroke-width:1.3;stroke-miterlimit:4;stroke-dasharray:none;stroke-opacity:1"
         id="rect12301" />
      <rect
         width="3.6360872"
         height="3.794178"
         x="503.12387"
         y="-218.21779"
         transform="rotate(40.092875)"
         style="fill:#000000;fill-opacity:1;fill-rule:nonzero;stroke:none;stroke-width:1.3;stroke-miterlimit:4;stroke-dasharray:none;stroke-opacity:1"
         id="rect12303" />
      <rect
         width="3.6360872"
         height="3.794178"
         x="506.6814"
         y="-221.93484"
         transform="rotate(40.092875)"
         style="fill:#000000;fill-opacity:1;fill-rule:nonzero;stroke:none;stroke-width:1.3;stroke-miterlimit:4;stroke-dasharray:none;stroke-opacity:1"
         id="rect12321" />
      <rect
         width="3.6360872"
         height="3.794178"
         x="506.68845"
         y="-207.07552"
         transform="rotate(40.092875)"
         style="fill:#000000;fill-opacity:1;fill-rule:nonzero;stroke:none;stroke-width:1.3;stroke-miterlimit:4;stroke-dasharray:none;stroke-opacity:1"
         id="rect12323" />
      <rect
         width="3.6360872"
         height="3.794178"
         x="506.77795"
         y="-229.43602"
         transform="rotate(40.092875)"
         style="fill:#000000;fill-opacity:1;fill-rule:nonzero;stroke:none;stroke-width:1.3;stroke-miterlimit:4;stroke-dasharray:none;stroke-opacity:1"
         id="rect12325" />
      <rect
         width="3.6360872"
         height="3.794178"
         x="506.65164"
         y="-218.24176"
         transform="rotate(40.092875)"
         style="fill:#ffffff;fill-opacity:1;fill-rule:nonzero;stroke:none;stroke-width:1.3;stroke-miterlimit:4;stroke-dasharray:none;stroke-opacity:1"
         id="rect12327" />
      <rect
         width="3.6360872"
         height="3.794178"
         x="506.69482"
         y="-225.6622"
         transform="rotate(40.092875)"
         style="fill:#ffffff;fill-opacity:1;fill-rule:nonzero;stroke:none;stroke-width:1.3;stroke-miterlimit:4;stroke-dasharray:none;stroke-opacity:1"
         id="rect12329" />
      <rect
         width="3.6360872"
         height="3.794178"
         x="506.69272"
         y="-210.72789"
         transform="rotate(40.092875)"
         style="fill:#ffffff;fill-opacity:1;fill-rule:nonzero;stroke:none;stroke-width:1.3;stroke-miterlimit:4;stroke-dasharray:none;stroke-opacity:1"
         id="rect12331" />
      <rect
         width="3.6360872"
         height="3.794178"
         x="506.69168"
         y="-203.26071"
         transform="rotate(40.092875)"
         style="fill:#ffffff;fill-opacity:1;fill-rule:nonzero;stroke:none;stroke-width:1.3;stroke-miterlimit:4;stroke-dasharray:none;stroke-opacity:1"
         id="rect12333" />
      <rect
         width="3.6360872"
         height="3.794178"
         x="506.67389"
         y="-214.48447"
         transform="rotate(40.092875)"
         style="fill:#000000;fill-opacity:1;fill-rule:nonzero;stroke:none;stroke-width:1.3;stroke-miterlimit:4;stroke-dasharray:none;stroke-opacity:1"
         id="rect12335" />
      <rect
         width="3.6360872"
         height="3.794178"
         x="510.23587"
         y="-225.71014"
         transform="rotate(40.092875)"
         style="fill:#000000;fill-opacity:1;fill-rule:nonzero;stroke:none;stroke-width:1.3;stroke-miterlimit:4;stroke-dasharray:none;stroke-opacity:1"
         id="rect12337" />
      <rect
         width="3.6360872"
         height="3.794178"
         x="510.24292"
         y="-210.85081"
         transform="rotate(40.092875)"
         style="fill:#000000;fill-opacity:1;fill-rule:nonzero;stroke:none;stroke-width:1.3;stroke-miterlimit:4;stroke-dasharray:none;stroke-opacity:1"
         id="rect12339" />
      <rect
         width="3.6360872"
         height="3.794178"
         x="510.33243"
         y="-233.21132"
         transform="rotate(40.092875)"
         style="fill:#000000;fill-opacity:1;fill-rule:nonzero;stroke:none;stroke-width:1.3;stroke-miterlimit:4;stroke-dasharray:none;stroke-opacity:1"
         id="rect12341" />
      <rect
         width="3.6360872"
         height="3.794178"
         x="510.20612"
         y="-222.01706"
         transform="rotate(40.092875)"
         style="fill:#ffffff;fill-opacity:1;fill-rule:nonzero;stroke:none;stroke-width:1.3;stroke-miterlimit:4;stroke-dasharray:none;stroke-opacity:1"
         id="rect12343" />
      <rect
         width="3.6360872"
         height="3.794178"
         x="510.2493"
         y="-229.4375"
         transform="rotate(40.092875)"
         style="fill:#ffffff;fill-opacity:1;fill-rule:nonzero;stroke:none;stroke-width:1.3;stroke-miterlimit:4;stroke-dasharray:none;stroke-opacity:1"
         id="rect12345" />
      <rect
         width="3.6360872"
         height="3.794178"
         x="510.24719"
         y="-214.50319"
         transform="rotate(40.092875)"
         style="fill:#ffffff;fill-opacity:1;fill-rule:nonzero;stroke:none;stroke-width:1.3;stroke-miterlimit:4;stroke-dasharray:none;stroke-opacity:1"
         id="rect12347" />
      <rect
         width="3.6360872"
         height="3.794178"
         x="510.24615"
         y="-207.03601"
         transform="rotate(40.092875)"
         style="fill:#ffffff;fill-opacity:1;fill-rule:nonzero;stroke:none;stroke-width:1.3;stroke-miterlimit:4;stroke-dasharray:none;stroke-opacity:1"
         id="rect12349" />
      <rect
         width="3.6360872"
         height="3.794178"
         x="510.22836"
         y="-218.25977"
         transform="rotate(40.092875)"
         style="fill:#000000;fill-opacity:1;fill-rule:nonzero;stroke:none;stroke-width:1.3;stroke-miterlimit:4;stroke-dasharray:none;stroke-opacity:1"
         id="rect12351" />
      <rect
         width="3.6360872"
         height="3.794178"
         x="510.32791"
         y="-203.24594"
         transform="rotate(40.092875)"
         style="fill:#000000;fill-opacity:1;fill-rule:nonzero;stroke:none;stroke-width:1.3;stroke-miterlimit:4;stroke-dasharray:none;stroke-opacity:1"
         id="rect12353" />
    </g>
    <path
       style="display:inline;fill:#ff0000;fill-rule:evenodd;stroke:#ffffff;stroke-width:1.56586px;stroke-linecap:butt;stroke-linejoin:miter;stroke-opacity:0"
       d="m 103.80423,726.99161 22.50963,1.21561 -10.9383,-43.0509 z"
       id="path2302" />
    <text
       xml:space="preserve"
       style="font-style:normal;font-weight:normal;font-size:18.5311px;line-height:0%;font-family:Arial;display:inline;fill:#000000;fill-opacity:1;stroke:none;stroke-width:1.54426px;stroke-linecap:butt;stroke-linejoin:miter;stroke-opacity:1"
       x="99.294014"
       y="986.6366"
       id="text15115"><tspan
         sodipodi:role="line"
         id="tspan15117"
         x="99.294014"
         y="986.6366"
         style="font-size:25.739px;line-height:1.25;stroke-width:1.54426px">Antony Noghes</tspan></text>
    <text
       xml:space="preserve"
       style="font-style:normal;font-weight:normal;font-size:18.5311px;line-height:0%;font-family:Arial;display:inline;fill:#000000;fill-opacity:1;stroke:none;stroke-width:1.54426px;stroke-linecap:butt;stroke-linejoin:miter;stroke-opacity:1"
       x="278.11185"
       y="616.43146"
       id="text2611"><tspan
         sodipodi:role="line"
         id="tspan2613"
         x="278.11185"
         y="616.43146"
         style="font-size:26.2482px;line-height:1.25;stroke-width:1.54426px">Louis Chiron</tspan></text>
    <text
       xml:space="preserve"
       style="font-style:normal;font-weight:normal;font-size:18.5311px;line-height:0%;font-family:Arial;display:inline;fill:#000000;fill-opacity:1;stroke:none;stroke-width:1.54426px;stroke-linecap:butt;stroke-linejoin:miter;stroke-opacity:1"
       x="482.00595"
       y="520.93054"
       id="text2615"><tspan
         sodipodi:role="line"
         id="tspan2617"
         x="482.00595"
         y="520.93054"
         style="font-size:26.2482px;line-height:1.25;stroke-width:1.54426px">Nouvelle Chicane</tspan></text>
    <text
       xml:space="preserve"
       style="font-style:normal;font-weight:normal;font-size:18.5311px;line-height:0%;font-family:Arial;display:inline;fill:#000000;fill-opacity:1;stroke:none;stroke-width:1.54426px;stroke-linecap:butt;stroke-linejoin:miter;stroke-opacity:1"
       x="281.74725"
       y="726.21527"
       id="text2619"><tspan
         sodipodi:role="line"
         id="tspan2621"
         x="281.74725"
         y="726.21527"
         style="font-size:26.2482px;line-height:1.25;stroke-width:1.54426px">Piscine</tspan></text>
    <text
       xml:space="preserve"
       style="font-style:normal;font-weight:normal;font-size:18.5311px;line-height:0%;font-family:Arial;display:inline;fill:#000000;fill-opacity:1;stroke:none;stroke-width:1.54426px;stroke-linecap:butt;stroke-linejoin:miter;stroke-opacity:1"
       x="453.84177"
       y="363.14337"
       id="text2623"><tspan
         sodipodi:role="line"
         id="tspan2625"
         x="453.84177"
         y="363.14337"
         style="font-size:26.2482px;line-height:1.25;stroke-width:1.54426px">Beau Rivage</tspan></text>
    <text
       xml:space="preserve"
       style="font-style:normal;font-weight:normal;font-size:18.5311px;line-height:0%;font-family:Arial;display:inline;fill:#000000;fill-opacity:1;stroke:none;stroke-width:1.54426px;stroke-linecap:butt;stroke-linejoin:miter;stroke-opacity:1"
       x="993.79669"
       y="401.15286"
       id="text2631"><tspan
         sodipodi:role="line"
         id="tspan2633"
         x="993.79669"
         y="401.15286"
         style="font-size:26.2482px;line-height:1.25;stroke-width:1.54426px">Tunel</tspan></text>
    <text
       xml:space="preserve"
       style="font-style:normal;font-weight:normal;font-size:18.5311px;line-height:0%;font-family:Arial;display:inline;fill:#000000;fill-opacity:1;stroke:none;stroke-width:1.54426px;stroke-linecap:butt;stroke-linejoin:miter;stroke-opacity:1"
       x="149.349"
       y="365.86099"
       id="text2635"><tspan
         sodipodi:role="line"
         id="tspan2637"
         x="149.349"
         y="365.86099"
         style="font-size:26.2482px;line-height:1.25;stroke-width:1.54426px">Sainte Devote</tspan></text>
    <text
       xml:space="preserve"
       style="font-style:normal;font-weight:normal;font-size:18.5311px;line-height:0%;font-family:Arial;display:inline;fill:#000000;fill-opacity:1;stroke:none;stroke-width:1.54426px;stroke-linecap:butt;stroke-linejoin:miter;stroke-opacity:1"
       x="359.17651"
       y="949.41156"
       id="text2639"><tspan
         sodipodi:role="line"
         id="tspan2641"
         x="359.17651"
         y="949.41156"
         style="font-size:26.2482px;line-height:1.25;stroke-width:1.54426px">Rascasse</tspan></text>
    <text
       xml:space="preserve"
       style="font-style:normal;font-weight:normal;font-size:18.5311px;line-height:0%;font-family:Arial;display:inline;fill:#000000;fill-opacity:1;stroke:none;stroke-width:1.54426px;stroke-linecap:butt;stroke-linejoin:miter;stroke-opacity:1"
       x="296.10468"
       y="521.1496"
       id="text2643"><tspan
         sodipodi:role="line"
         id="tspan2645"
         x="296.10468"
         y="521.1496"
         style="font-size:26.2482px;line-height:1.25;stroke-width:1.54426px">Tabac</tspan></text>
    <text
       xml:space="preserve"
       style="font-style:normal;font-weight:normal;font-size:18.5311px;line-height:0%;font-family:Arial;display:inline;fill:#000000;fill-opacity:1;stroke:none;stroke-width:1.54426px;stroke-linecap:butt;stroke-linejoin:miter;stroke-opacity:1"
       x="661.73987"
       y="202.69318"
       id="text2647"><tspan
         sodipodi:role="line"
         id="tspan2649"
         x="661.73987"
         y="202.69318"
         style="font-size:26.2482px;line-height:1.25;stroke-width:1.54426px">Casino</tspan></text>
    <text
       xml:space="preserve"
       style="font-style:normal;font-weight:normal;font-size:18.5311px;line-height:0%;font-family:Arial;display:inline;fill:#000000;fill-opacity:1;stroke:none;stroke-width:1.54426px;stroke-linecap:butt;stroke-linejoin:miter;stroke-opacity:1"
       x="661.02551"
       y="329.78082"
       id="text2651"><tspan
         sodipodi:role="line"
         id="tspan2653"
         x="661.02551"
         y="329.78082"
         style="font-size:26.2482px;line-height:1.25;stroke-width:1.54426px">Massenet</tspan></text>
    <text
       xml:space="preserve"
       style="font-style:normal;font-weight:normal;font-size:18.5311px;line-height:0%;font-family:Arial;display:inline;fill:#000000;fill-opacity:1;stroke:none;stroke-width:1.54426px;stroke-linecap:butt;stroke-linejoin:miter;stroke-opacity:1"
       x="1107.069"
       y="141.42291"
       id="text2659"><tspan
         sodipodi:role="line"
         id="tspan2661"
         x="1107.069"
         y="141.42291"
         style="font-size:26.2482px;line-height:1.25;stroke-width:1.54426px">Portier</tspan></text>
    <text
       xml:space="preserve"
       style="font-style:normal;font-weight:normal;font-size:18.5311px;line-height:0%;font-family:Arial;display:inline;fill:#000000;fill-opacity:1;stroke:none;stroke-width:1.54426px;stroke-linecap:butt;stroke-linejoin:miter;stroke-opacity:1"
       x="980.43884"
       y="34.521656"
       id="text2663"><tspan
         sodipodi:role="line"
         id="tspan2665"
         x="980.43884"
         y="34.521656"
         style="font-size:26.2482px;line-height:1.25;stroke-width:1.54426px">Mirabeau </tspan><tspan
         sodipodi:role="line"
         x="980.43884"
         y="48.798748"
         id="tspan2675"
         style="font-size:26.2482px;line-height:1.25;stroke-width:1.54426px" /></text>
    <text
       xml:space="preserve"
       style="font-style:normal;font-weight:normal;font-size:18.5311px;line-height:0%;font-family:Arial;display:inline;fill:#000000;fill-opacity:1;stroke:none;stroke-width:1.54426px;stroke-linecap:butt;stroke-linejoin:miter;stroke-opacity:1"
       x="858.07141"
       y="196.96857"
       id="text2667"><tspan
         sodipodi:role="line"
         id="tspan2669"
         x="858.07141"
         y="196.96857"
         style="font-size:26.2482px;line-height:1.25;stroke-width:1.54426px"> Grand</tspan><tspan
         sodipodi:role="line"
         x="858.07141"
         y="229.77881"
         id="tspan2671"
         style="font-size:26.2482px;line-height:1.25;stroke-width:1.54426px">  Hotel</tspan><tspan
         sodipodi:role="line"
         x="858.07141"
         y="262.58902"
         id="tspan2673"
         style="font-size:26.2482px;line-height:1.25;stroke-width:1.54426px">Hairpin</tspan></text>
    <path
       style="fill:none;stroke:#ff0000;stroke-width:1.88976;stroke-miterlimit:4.8"
       d="m 143.7692,672.11359 c 1.35409,-40.10666 11.32909,-94.27633 20.08759,-128.04436 8.85225,-34.12948 65.93581,-142.5275 75.75855,-144.90877 9.82274,-2.38127 38.69564,6.25083 48.22073,6.54849 9.52508,0.29766 255.56838,-3.22778 263.42804,-4.16722 8.0291,-0.95969 60.98983,-17.05769 69.65216,-17.56187 9.52754,-0.55454 110.13376,-1.78595 127.99329,-4.76254 8.63529,-1.43921 68.75918,-33.93311 64.2943,-61.61537 -4.46488,-27.68227 -44.9971,-91.12509 -41.37458,-113.40801 1.75545,-10.79814 41.89249,-48.24278 82.43422,-85.69533 42.64221,-39.392967 85.89035,-78.604814 91.99385,-78.909989 11.90635,-0.595318 12.20401,13.989964 12.79933,18.454846 0.59531,4.464882 -2.07228,124.256023 26.49163,121.742453 26.58749,-2.33965 7.44147,-70.54514 14.28757,-78.58192 5.05182,-5.930488 65.48492,-8.334452 71.14052,-2.678935 7.7619,7.761995 -4.7626,59.829425 -7.4415,68.163865 -2.6789,8.33445 -49.8257,139.19515 -91.97656,175.02338 -41.67223,35.4214 -109.24078,83.64212 -178.29762,94.06018 -69.05684,10.41806 -223.95143,11.68618 -229.79071,13.83846 -3.80973,1.40421 0.52309,26.34258 -4.12855,27.80096 -7.01495,2.19931 -47.46246,1.73798 -54.72391,-0.0511 -7.26144,-1.78905 -25.88861,-16.83812 -34.51815,-16.73289 -8.62954,0.10524 -176.31016,0.14788 -191.1931,10.26828 -14.88294,10.1204 -44.0535,123.23075 -44.94648,131.56519 -0.89298,8.33445 7.84587,8.05935 12.79933,15.77592 4.7968,7.47254 4.89998,83.92759 3.86957,98.52507 -1.78596,25.301 -25.50821,45.72448 -27.97993,64.2943 -2.94979,22.16143 22.62206,66.97323 36.01671,83.04681 13.39465,16.07357 55.95986,43.45818 64.59196,47.92306 8.63211,4.46488 22.91973,13.39465 19.64549,27.97993 -3.27425,14.58528 -21.7291,14.58528 -25.89632,14.58528 -4.16722,0 -104.77591,-11.31103 -114.00333,-13.39464 -8.31939,-1.87857 -13.55246,-6.21485 -11.31103,-15.47826 1.73179,-7.15714 7.09579,-29.96069 2.97659,-34.82608 -11.15379,-13.17428 -44.35116,-78.58193 -47.03009,-108.64547 -2.67893,-30.06354 -5.22366,-70.02709 -3.86957,-110.13375 z"
       id="track"
       sodipodi:nodetypes="zssssssssssssssssssssssssssssssssssz" />
    <path
       style="fill:none;fill-rule:evenodd;stroke:#8c8c8c;stroke-width:40.2174;stroke-linecap:butt;stroke-linejoin:miter;stroke-miterlimit:4;stroke-dasharray:none;stroke-opacity:1"
       d="m 1063.2582,168.33396 c 0,0 -8.5512,60.01576 -78.46485,161.28895 0,0 -52.30994,70.36949 -179.97115,103.99728"
       id="path9016"
       sodipodi:nodetypes="ccc" />
  </g>
</svg>
