<?xml version="1.0" encoding="UTF-8" standalone="no"?>
<!-- Created with Inkscape (http://www.inkscape.org/) -->

<svg
   width="1200"
   height="1000"
   id="track-svg"
   sodipodi:version="0.32"
   inkscape:version="1.3.2 (091e20e, 2023-11-25)"
   sodipodi:docname="track.svg"
   inkscape:output_extension="org.inkscape.output.svg.inkscape"
   version="1.0"
   xmlns:inkscape="http://www.inkscape.org/namespaces/inkscape"
   xmlns:sodipodi="http://sodipodi.sourceforge.net/DTD/sodipodi-0.dtd"
   xmlns="http://www.w3.org/2000/svg"
   xmlns:svg="http://www.w3.org/2000/svg"
   xmlns:rdf="http://www.w3.org/1999/02/22-rdf-syntax-ns#"
   xmlns:cc="http://creativecommons.org/ns#"
   xmlns:dc="http://purl.org/dc/elements/1.1/">
  <defs
     id="defs2227" />
  <sodipodi:namedview
     id="base"
     pagecolor="#ffffff"
     bordercolor="#666666"
     borderopacity="1.0"
     gridtolerance="10000"
     guidetolerance="10"
     objecttolerance="10"
     inkscape:pageopacity="0.0"
     inkscape:pageshadow="2"
     inkscape:zoom="0.8906362"
     inkscape:cx="989.18054"
     inkscape:cy="362.6621"
     inkscape:document-units="px"
     inkscape:current-layer="g1"
     inkscape:window-width="1720"
     inkscape:window-height="1101"
     inkscape:window-x="176"
     inkscape:window-y="40"
     width="480.09px"
     height="751.36px"
     inkscape:showpageshadow="2"
     inkscape:pagecheckerboard="0"
     inkscape:deskcolor="#d1d1d1"
     inkscape:window-maximized="0"
     showgrid="true">
    <inkscape:grid
       id="grid1"
       units="px"
       originx="90.451645"
       originy="-179.6004"
       spacingx="1"
       spacingy="1"
       empcolor="#0099e5"
       empopacity="0.30196078"
       color="#0099e5"
       opacity="0.14901961"
       empspacing="5"
       dotted="false"
       gridanglex="30"
       gridanglez="30"
       visible="true" />
  </sodipodi:namedview>
  <metadata
     id="metadata2230">
    <rdf:RDF>
      <cc:Work
         rdf:about="">
        <dc:format>image/svg+xml</dc:format>
        <dc:type
           rdf:resource="http://purl.org/dc/dcmitype/StillImage" />
      </cc:Work>
    </rdf:RDF>
  </metadata>
  <g
     inkscape:label="Layer 1"
     inkscape:groupmode="layer"
     id="layer1"
     transform="translate(90.451645,-179.60041)">
    <g
       id="g1"
       transform="matrix(1.8339146,0,0,1.8339146,75.428948,39.670121)">
      <path
         style="fill:none;fill-opacity:0.75;fill-rule:evenodd;stroke:#000000;stroke-width:5;stroke-linecap:butt;stroke-linejoin:miter;stroke-miterlimit:4;stroke-dasharray:none;stroke-opacity:1"
         d="m -52.432736,423.83819 c -3.578285,-4.97367 9.527391,-17.16776 6.198276,-21.24798 -3.329116,-4.08021 -1.591518,-3.4784 -7.359812,-4.9877 -2.605388,-0.68172 -8.316269,0.94733 -11.241972,0.35599 -3.307621,-0.66853 -4.471361,-1.40549 -4.471361,-1.40549 -8.269259,-4.55944 -16.844074,-23.73923 -18.53652,-32.98246 -1.289527,-7.0427 6.742737,-9.05548 12.592561,-11.93502 5.849824,-2.87954 17.542088,-8.48683 28.747598,-12.90518 22.423589,-8.84164 46.29124501,-18.40586 46.29124501,-18.40586 L 27.644299,312.91083 163.54894,279.99653 c 3.3089,-0.67638 5.51068,-0.81333 8.23271,0.716 3.87957,2.05014 10.45497,4.84401 15.57481,3.54471 5.95763,-1.5119 8.58287,-4.92923 10.06318,-8.73421 1.48032,-3.80498 3.80829,-6.36999 6.76313,-7.90828 2.95484,-1.5383 149.8553,-46.29707 154.61497,-48.27208 4.75967,-1.97501 7.17273,-13.67015 13.73535,-14.26404 8.13232,-0.73597 11.93834,6.97143 18.96577,5.88679 7.01193,-1.08224 0,0 9.1625,-1.66993 l 68.11938,-14.98798 64.03024,-10.37932 21.6076,-1.82405 c 0,0 3.06844,0.10847 5.09015,0.77344 1.92717,0.63388 2.82891,0.002 2.82591,5.5438 -0.006,11.35573 -7.10402,38.12169 -7.10402,38.12169 0,0 -15.50113,46.78115 -40.49408,90.78455 -20.86868,36.74209 -50.66634,71.98374 -58.62487,83.59678 -1.73987,2.5388 -3.53276,3.86039 -6.82885,4.49241 l -15.76353,2.83272 4.83328,32.8029 c 0,0 -15.91057,2.64879 -30.53277,5.66844 -23.55661,4.50637 -38.28734,10.56922 -56.71401,26.65099 -5.21246,4.86418 -4.99331,13.2529 -7.96071,17.48003 -3.66935,5.22708 -6.61054,7.90262 -15.40871,7.26044 -14.00433,-1.02218 -24.29444,-17.97531 -30.75825,-22.47071 -5.76544,-4.00972 -3.63666,-3.94103 -17.50116,-0.91782 -7.08362,1.54461 -11.31578,9.95908 -17.64328,16.87385 -6.59702,7.20933 -3.60637,8.33298 -10.62959,11.07469 -6.03741,2.35687 -7.97825,-0.54602 -11.81112,-3.22603 -4.90239,-3.42783 -5.02712,-6.89192 -9.62241,-6.73057 -4.80104,0.16858 0,0 -7.69423,0.53249 l -59.47302,4.28748 c -2.62446,0.22597 -11.0262,0.59138 -13.76325,2.61387 -2.73705,2.02249 -1.69862,4.82611 -4.22579,5.2821 -2.52717,0.456 -3.40411,-3.09635 -5.91187,-1.92858 -2.50777,1.16778 -2.74839,4.87923 -5.58737,7.32935 -1.86292,1.60776 -6.99038,1.73761 -31.13351,1.74687 -10.033646,0.004 -21.759982,-0.22828 -32.701772,-1.0255 -12.84937,-0.93619 -16.767654,-1.06864 -30.960123,-4.62973 C 8.6431206,499.47785 9.7812193,496.38766 6.2192855,492.3317 2.6573518,488.27573 -5.3903583,473.78113 -12.745857,465.96869 c -5.546043,-6.39842 -2.062353,-10.19649 -3.836572,-12.68925 -2.412418,-3.38942 -8.451874,-0.51756 -12.436375,-5.85983 -3.984502,-5.34227 4.078894,-8.94733 -1.673287,-13.28337 -2.748098,-2.07155 -8.526674,-1.58134 -13.431137,-2.60592 -5.361313,-1.12 -6.440746,-5.09465 -8.309511,-7.69217 z"
         id="track"
         sodipodi:nodetypes="cssscszscccsszzzssccccsscsscccssssssssssccssssssszcsssssc" />
    </g>
    <path
       d="m 278.44505,1001.4128 -3.72778,16.073 -28.17188,-15.2896 z"
       style="fill:#ff0000;fill-opacity:1;fill-rule:evenodd;stroke:none;stroke-width:1.83391px;stroke-linecap:butt;stroke-linejoin:miter;stroke-opacity:1"
       id="path7195" />
    <text
       x="959.37006"
       y="456.61774"
       style="font-style:normal;font-weight:normal;font-size:22.007px;line-height:0%;font-family:Arial;fill:#000000;fill-opacity:1;stroke:none;stroke-width:1.83391px;stroke-linecap:butt;stroke-linejoin:miter;stroke-opacity:1"
       id="text9334"
       xml:space="preserve"
       transform="rotate(-0.47922055)"><tspan
         style="font-family:Arial;stroke-width:1.83391px"
         x="959.37006"
         y="456.61774"
         id="tspan9336">Mulsanne</tspan></text>
    <g
       transform="matrix(1.1587335,-0.94547377,0.94547377,1.1587335,-498.62159,1254.0044)"
       id="g12355">
      <rect
         width="3.6360872"
         height="3.794178"
         x="503.13138"
         y="-225.66817"
         transform="rotate(40.092875)"
         style="fill:#000000;fill-opacity:1;fill-rule:nonzero;stroke:none;stroke-width:1.3;stroke-miterlimit:4;stroke-dasharray:none;stroke-opacity:1"
         id="rect9376" />
      <rect
         width="3.6360872"
         height="3.794178"
         x="503.13843"
         y="-210.80884"
         transform="rotate(40.092875)"
         style="fill:#000000;fill-opacity:1;fill-rule:nonzero;stroke:none;stroke-width:1.3;stroke-miterlimit:4;stroke-dasharray:none;stroke-opacity:1"
         id="rect10347" />
      <rect
         width="3.6360872"
         height="3.794178"
         x="503.22794"
         y="-233.16934"
         transform="rotate(40.092875)"
         style="fill:#000000;fill-opacity:1;fill-rule:nonzero;stroke:none;stroke-width:1.3;stroke-miterlimit:4;stroke-dasharray:none;stroke-opacity:1"
         id="rect10349" />
      <rect
         width="3.6360872"
         height="3.794178"
         x="503.10162"
         y="-221.97508"
         transform="rotate(40.092875)"
         style="fill:#ffffff;fill-opacity:1;fill-rule:nonzero;stroke:none;stroke-width:1.3;stroke-miterlimit:4;stroke-dasharray:none;stroke-opacity:1"
         id="rect10351" />
      <rect
         width="3.6360872"
         height="3.794178"
         x="503.14481"
         y="-229.39552"
         transform="rotate(40.092875)"
         style="fill:#ffffff;fill-opacity:1;fill-rule:nonzero;stroke:none;stroke-width:1.3;stroke-miterlimit:4;stroke-dasharray:none;stroke-opacity:1"
         id="rect12293" />
      <rect
         width="3.6360872"
         height="3.794178"
         x="503.1427"
         y="-214.46121"
         transform="rotate(40.092875)"
         style="fill:#ffffff;fill-opacity:1;fill-rule:nonzero;stroke:none;stroke-width:1.3;stroke-miterlimit:4;stroke-dasharray:none;stroke-opacity:1"
         id="rect12295" />
      <rect
         width="3.6360872"
         height="3.794178"
         x="503.14166"
         y="-206.99403"
         transform="rotate(40.092875)"
         style="fill:#ffffff;fill-opacity:1;fill-rule:nonzero;stroke:none;stroke-width:1.3;stroke-miterlimit:4;stroke-dasharray:none;stroke-opacity:1"
         id="rect12297" />
      <rect
         width="3.6360872"
         height="3.794178"
         x="506.87115"
         y="-233.22285"
         transform="rotate(40.092875)"
         style="fill:#ffffff;fill-opacity:1;fill-rule:nonzero;stroke:none;stroke-width:1.3;stroke-miterlimit:4;stroke-dasharray:none;stroke-opacity:1"
         id="rect12299" />
      <rect
         width="3.6360872"
         height="3.794178"
         x="503.1145"
         y="-203.19873"
         transform="rotate(40.092875)"
         style="fill:#000000;fill-opacity:1;fill-rule:nonzero;stroke:none;stroke-width:1.3;stroke-miterlimit:4;stroke-dasharray:none;stroke-opacity:1"
         id="rect12301" />
      <rect
         width="3.6360872"
         height="3.794178"
         x="503.12387"
         y="-218.21779"
         transform="rotate(40.092875)"
         style="fill:#000000;fill-opacity:1;fill-rule:nonzero;stroke:none;stroke-width:1.3;stroke-miterlimit:4;stroke-dasharray:none;stroke-opacity:1"
         id="rect12303" />
      <rect
         width="3.6360872"
         height="3.794178"
         x="506.6814"
         y="-221.93484"
         transform="rotate(40.092875)"
         style="fill:#000000;fill-opacity:1;fill-rule:nonzero;stroke:none;stroke-width:1.3;stroke-miterlimit:4;stroke-dasharray:none;stroke-opacity:1"
         id="rect12321" />
      <rect
         width="3.6360872"
         height="3.794178"
         x="506.68845"
         y="-207.07552"
         transform="rotate(40.092875)"
         style="fill:#000000;fill-opacity:1;fill-rule:nonzero;stroke:none;stroke-width:1.3;stroke-miterlimit:4;stroke-dasharray:none;stroke-opacity:1"
         id="rect12323" />
      <rect
         width="3.6360872"
         height="3.794178"
         x="506.77795"
         y="-229.43602"
         transform="rotate(40.092875)"
         style="fill:#000000;fill-opacity:1;fill-rule:nonzero;stroke:none;stroke-width:1.3;stroke-miterlimit:4;stroke-dasharray:none;stroke-opacity:1"
         id="rect12325" />
      <rect
         width="3.6360872"
         height="3.794178"
         x="506.65164"
         y="-218.24176"
         transform="rotate(40.092875)"
         style="fill:#ffffff;fill-opacity:1;fill-rule:nonzero;stroke:none;stroke-width:1.3;stroke-miterlimit:4;stroke-dasharray:none;stroke-opacity:1"
         id="rect12327" />
      <rect
         width="3.6360872"
         height="3.794178"
         x="506.69482"
         y="-225.6622"
         transform="rotate(40.092875)"
         style="fill:#ffffff;fill-opacity:1;fill-rule:nonzero;stroke:none;stroke-width:1.3;stroke-miterlimit:4;stroke-dasharray:none;stroke-opacity:1"
         id="rect12329" />
      <rect
         width="3.6360872"
         height="3.794178"
         x="506.69272"
         y="-210.72789"
         transform="rotate(40.092875)"
         style="fill:#ffffff;fill-opacity:1;fill-rule:nonzero;stroke:none;stroke-width:1.3;stroke-miterlimit:4;stroke-dasharray:none;stroke-opacity:1"
         id="rect12331" />
      <rect
         width="3.6360872"
         height="3.794178"
         x="506.69168"
         y="-203.26071"
         transform="rotate(40.092875)"
         style="fill:#ffffff;fill-opacity:1;fill-rule:nonzero;stroke:none;stroke-width:1.3;stroke-miterlimit:4;stroke-dasharray:none;stroke-opacity:1"
         id="rect12333" />
      <rect
         width="3.6360872"
         height="3.794178"
         x="506.67389"
         y="-214.48447"
         transform="rotate(40.092875)"
         style="fill:#000000;fill-opacity:1;fill-rule:nonzero;stroke:none;stroke-width:1.3;stroke-miterlimit:4;stroke-dasharray:none;stroke-opacity:1"
         id="rect12335" />
      <rect
         width="3.6360872"
         height="3.794178"
         x="510.23587"
         y="-225.71014"
         transform="rotate(40.092875)"
         style="fill:#000000;fill-opacity:1;fill-rule:nonzero;stroke:none;stroke-width:1.3;stroke-miterlimit:4;stroke-dasharray:none;stroke-opacity:1"
         id="rect12337" />
      <rect
         width="3.6360872"
         height="3.794178"
         x="510.24292"
         y="-210.85081"
         transform="rotate(40.092875)"
         style="fill:#000000;fill-opacity:1;fill-rule:nonzero;stroke:none;stroke-width:1.3;stroke-miterlimit:4;stroke-dasharray:none;stroke-opacity:1"
         id="rect12339" />
      <rect
         width="3.6360872"
         height="3.794178"
         x="510.33243"
         y="-233.21132"
         transform="rotate(40.092875)"
         style="fill:#000000;fill-opacity:1;fill-rule:nonzero;stroke:none;stroke-width:1.3;stroke-miterlimit:4;stroke-dasharray:none;stroke-opacity:1"
         id="rect12341" />
      <rect
         width="3.6360872"
         height="3.794178"
         x="510.20612"
         y="-222.01706"
         transform="rotate(40.092875)"
         style="fill:#ffffff;fill-opacity:1;fill-rule:nonzero;stroke:none;stroke-width:1.3;stroke-miterlimit:4;stroke-dasharray:none;stroke-opacity:1"
         id="rect12343" />
      <rect
         width="3.6360872"
         height="3.794178"
         x="510.2493"
         y="-229.4375"
         transform="rotate(40.092875)"
         style="fill:#ffffff;fill-opacity:1;fill-rule:nonzero;stroke:none;stroke-width:1.3;stroke-miterlimit:4;stroke-dasharray:none;stroke-opacity:1"
         id="rect12345" />
      <rect
         width="3.6360872"
         height="3.794178"
         x="510.24719"
         y="-214.50319"
         transform="rotate(40.092875)"
         style="fill:#ffffff;fill-opacity:1;fill-rule:nonzero;stroke:none;stroke-width:1.3;stroke-miterlimit:4;stroke-dasharray:none;stroke-opacity:1"
         id="rect12347" />
      <rect
         width="3.6360872"
         height="3.794178"
         x="510.24615"
         y="-207.03601"
         transform="rotate(40.092875)"
         style="fill:#ffffff;fill-opacity:1;fill-rule:nonzero;stroke:none;stroke-width:1.3;stroke-miterlimit:4;stroke-dasharray:none;stroke-opacity:1"
         id="rect12349" />
      <rect
         width="3.6360872"
         height="3.794178"
         x="510.22836"
         y="-218.25977"
         transform="rotate(40.092875)"
         style="fill:#000000;fill-opacity:1;fill-rule:nonzero;stroke:none;stroke-width:1.3;stroke-miterlimit:4;stroke-dasharray:none;stroke-opacity:1"
         id="rect12351" />
      <rect
         width="3.6360872"
         height="3.794178"
         x="510.32791"
         y="-203.24594"
         transform="rotate(40.092875)"
         style="fill:#000000;fill-opacity:1;fill-rule:nonzero;stroke:none;stroke-width:1.3;stroke-miterlimit:4;stroke-dasharray:none;stroke-opacity:1"
         id="rect12353" />
    </g>
    <text
       x="699.27313"
       y="753.35828"
       style="font-style:normal;font-weight:normal;font-size:22.007px;line-height:0%;font-family:'Arial Narrow';fill:#000000;fill-opacity:1;stroke:none;stroke-width:1.83391px;stroke-linecap:butt;stroke-linejoin:miter;stroke-opacity:1"
       id="text10557"
       xml:space="preserve"
       transform="rotate(0.31559388)"><tspan
         style="font-family:Arial;stroke-width:1.83391px"
         x="699.27313"
         y="753.35828"
         id="tspan10559">Virage d'Indianapolis</tspan></text>
    <text
       x="832.02679"
       y="906.40552"
       style="font-style:normal;font-weight:normal;font-size:22.007px;line-height:0%;font-family:Arial;fill:#000000;fill-opacity:1;stroke:none;stroke-width:1.83391px;stroke-linecap:butt;stroke-linejoin:miter;stroke-opacity:1"
       id="text10571"
       xml:space="preserve"
       transform="rotate(-0.03710903)"><tspan
         style="font-family:Arial;stroke-width:1.83391px"
         x="832.02679"
         y="906.40552"
         id="tspan10573">Virage d'Arnage</tspan></text>
    <text
       id="text10575"
       y="995.10779"
       x="619.14001"
       style="font-style:normal;font-weight:normal;font-size:22.007px;line-height:0%;font-family:'Bitstream Vera Sans';fill:#000000;fill-opacity:1;stroke:none;stroke-width:1.83391px;stroke-linecap:butt;stroke-linejoin:miter;stroke-opacity:1"
       xml:space="preserve"
       transform="rotate(0.50852039)"><tspan
         y="995.10779"
         x="619.14001"
         id="tspan10577"
         sodipodi:role="line"
         style="font-size:22.007px;line-height:1.25;stroke-width:1.83391px">Virage Porsche</tspan></text>
    <text
       id="text10713"
       y="1009.1109"
       x="30.167763"
       style="font-style:normal;font-weight:normal;font-size:22.007px;line-height:0%;font-family:'Bitstream Vera Sans';fill:#000000;fill-opacity:1;stroke:none;stroke-width:1.83391px;stroke-linecap:butt;stroke-linejoin:miter;stroke-opacity:1"
       xml:space="preserve"
       transform="rotate(-0.06290334)"><tspan
         y="1009.1109"
         x="30.167763"
         id="tspan10715"
         sodipodi:role="line"
         style="font-size:22.007px;line-height:1.25;stroke-width:1.83391px">Courbe Dunlop</tspan></text>
    <g
       id="g10727"
       transform="matrix(1.8339135,0.0020147,-0.0020147,1.8339135,-350.33355,-302.64562)">
      <text
         xml:space="preserve"
         id="text10717"
         style="font-style:normal;font-weight:normal;font-size:12px;line-height:0%;font-family:Arial;fill:#000000;fill-opacity:1;stroke:none;stroke-width:1px;stroke-linecap:butt;stroke-linejoin:miter;stroke-opacity:1"
         y="399.28006"
         x="398.72665"><tspan
           id="tspan10719"
           y="399.28006"
           x="398.72665"
           style="font-family:Arial">Ligne droite </tspan></text>
      <text
         id="text10721"
         xml:space="preserve"
         style="font-style:normal;font-weight:normal;font-size:12px;line-height:0%;font-family:Arial;fill:#000000;fill-opacity:1;stroke:none;stroke-width:1px;stroke-linecap:butt;stroke-linejoin:miter;stroke-opacity:1"
         y="412.47336"
         x="386.4278"><tspan
           id="tspan10723"
           y="412.47336"
           x="386.4278"
           style="font-family:Arial">des Hunaudieres</tspan></text>
      <path
         sodipodi:nodetypes="cc"
         id="path10725"
         d="m 454.76921,402.98743 c 2.84454,2.87327 1.97881,1.91134 1.97881,1.91134"
         style="fill:none;fill-opacity:0.75;fill-rule:evenodd;stroke:#000000;stroke-width:1px;stroke-linecap:butt;stroke-linejoin:miter;stroke-opacity:1" />
    </g>
    <text
       xml:space="preserve"
       style="font-style:normal;font-weight:normal;font-size:22.007px;line-height:0%;font-family:'Bitstream Vera Sans';fill:#000000;fill-opacity:1;stroke:none;stroke-width:1.83391px;stroke-linecap:butt;stroke-linejoin:miter;stroke-opacity:1"
       x="58.235577"
       y="703.06146"
       id="text10746"
       transform="rotate(-0.13933628)"><tspan
         sodipodi:role="line"
         id="tspan10748"
         x="58.235577"
         y="703.06146"
         style="font-size:22.007px;line-height:1.25;text-align:center;text-anchor:middle;stroke-width:1.83391px">Virage du</tspan><tspan
         sodipodi:role="line"
         x="58.235577"
         y="730.57019"
         id="tspan10750"
         style="font-size:22.007px;line-height:1.25;text-align:center;text-anchor:middle;stroke-width:1.83391px">Tertre Rouge</tspan></text>
    <text
       id="text2297"
       y="912.09747"
       x="311.82489"
       style="font-style:normal;font-weight:normal;font-size:22.007px;line-height:0%;font-family:'Bitstream Vera Sans';fill:#000000;fill-opacity:1;stroke:none;stroke-width:1.83391px;stroke-linecap:butt;stroke-linejoin:miter;stroke-opacity:1"
       xml:space="preserve"
       transform="rotate(0.48123014)"><tspan
         y="912.09747"
         x="311.82489"
         id="tspan2299"
         sodipodi:role="line"
         style="font-size:22.007px;line-height:1.25;stroke-width:1.83391px">Virages Ford</tspan></text>
  </g>
</svg>
