<?xml version="1.0" encoding="UTF-8" standalone="no"?>
<!-- Created with Inkscape (http://www.inkscape.org/) -->

<svg
   width="162.71448mm"
   height="39.189659mm"
   viewBox="0 0 162.71448 39.189659"
   version="1.1"
   id="svg1"
   inkscape:version="1.4.2 (ebf0e940d0, 2025-05-08)"
   sodipodi:docname="f1.svg"
   xmlns:inkscape="http://www.inkscape.org/namespaces/inkscape"
   xmlns:sodipodi="http://sodipodi.sourceforge.net/DTD/sodipodi-0.dtd"
   xmlns="http://www.w3.org/2000/svg"
   xmlns:svg="http://www.w3.org/2000/svg">
  <sodipodi:namedview
     id="namedview1"
     pagecolor="#ffffff"
     bordercolor="#000000"
     borderopacity="0.25"
     inkscape:showpageshadow="2"
     inkscape:pageopacity="0.0"
     inkscape:pagecheckerboard="0"
     inkscape:deskcolor="#d1d1d1"
     inkscape:document-units="mm"
     inkscape:zoom="1.5156072"
     inkscape:cx="335.1792"
     inkscape:cy="117.77458"
     inkscape:window-width="2536"
     inkscape:window-height="1390"
     inkscape:window-x="0"
     inkscape:window-y="0"
     inkscape:window-maximized="1"
     inkscape:current-layer="g8" />
  <defs
     id="defs1">
    <inkscape:path-effect
       effect="fillet_chamfer"
       id="path-effect7"
       is_visible="true"
       lpeversion="1"
       nodesatellites_param="F,0,0,1,0,0,0,1 @ F,0,0,1,0,0,0,1 @ F,0,0,1,0,2.0344262,0,1 @ F,0,0,1,0,0,0,1 @ F,0,0,1,0,0,0,1"
       radius="0"
       unit="px"
       method="auto"
       mode="F"
       chamfer_steps="1"
       flexible="false"
       use_knot_distance="true"
       apply_no_radius="true"
       apply_with_radius="true"
       only_selected="false"
       hide_knots="false" />
    <inkscape:path-effect
       effect="fillet_chamfer"
       id="path-effect8"
       is_visible="true"
       lpeversion="1"
       nodesatellites_param="F,0,0,1,0,0.80526079,0,1 @ F,0,0,1,0,0,0,1 @ F,0,0,1,0,0.40891659,0,1 @ F,0,0,1,0,0,0,1 @ F,0,0,1,0,0.34413147,0,1 @ F,0,0,1,0,0.29426753,0,1 @ F,0,0,1,0,0,0,1 @ F,0,0,1,0,0,0,1 @ F,0,0,1,0,0,0,1 @ F,0,0,1,0,0,0,1 @ F,0,0,1,0,0,0,1 @ F,0,0,1,0,0,0,1 @ F,0,0,1,0,0,0,1 @ F,0,0,1,0,0.44783713,0,1 @ F,0,0,1,0,0.39420966,0,1 @ F,0,0,1,0,0.15101716,0,1 @ F,0,0,1,0,0.12765981,0,1 @ F,0,0,1,0,0.14405659,0,1 @ F,0,0,1,0,0.23695622,0,1 @ F,0,0,1,0,0,0,1 @ F,0,0,1,0,0.24342686,0,1 @ F,0,0,1,0,0.18317851,0,1 @ F,0,0,1,0,0.35837238,0,1 @ F,0,0,1,0,0.18317851,0,1 @ F,0,0,1,0,0,0,1 @ F,0,0,1,0,0,0,1 @ F,0,0,1,0,1.2159,0,1 @ F,0,0,1,0,0.63096779,0,1 @ F,0,0,1,0,0,0,1 @ F,0,0,1,0,0.59598715,0,1 @ F,0,0,1,0,0.56220938,0,1 @ F,0,0,1,0,0,0,1 @ F,0,0,1,0,0,0,1 @ F,0,0,1,0,0,0,1 @ F,0,0,1,0,0,0,1 @ F,0,0,1,0,0,0,1 @ F,0,0,1,0,0,0,1 @ F,0,0,1,0,0.56465583,0,1"
       radius="0"
       unit="px"
       method="auto"
       mode="F"
       chamfer_steps="1"
       flexible="false"
       use_knot_distance="true"
       apply_no_radius="true"
       apply_with_radius="true"
       only_selected="false"
       hide_knots="false" />
    <inkscape:path-effect
       effect="fillet_chamfer"
       id="path-effect9"
       is_visible="true"
       lpeversion="1"
       nodesatellites_param="F,0,0,1,0,0,0,1 @ F,0,0,1,0,0,0,1 @ F,0,0,1,0,0,0,1 @ F,0,0,1,0,0,0,1 @ F,0,0,1,0,0,0,1 @ F,0,0,1,0,0,0,1 @ F,0,0,1,0,0.24132344,0,1 @ F,0,0,1,0,0,0,1 @ F,0,0,1,0,0,0,1 @ F,0,0,1,0,0,0,1 @ F,0,0,1,0,0,0,1 @ F,0,0,1,0,0,0,1 @ F,0,0,1,0,0,0,1 @ F,0,0,1,0,0,0,1 @ F,0,0,1,0,0,0,1"
       radius="0"
       unit="px"
       method="auto"
       mode="F"
       chamfer_steps="1"
       flexible="false"
       use_knot_distance="true"
       apply_no_radius="true"
       apply_with_radius="true"
       only_selected="false"
       hide_knots="false" />
    <inkscape:path-effect
       effect="fillet_chamfer"
       id="path-effect10"
       is_visible="true"
       lpeversion="1"
       nodesatellites_param="F,0,0,1,0,0.28362709,0,1 @ F,0,0,1,0,0.47413735,0,1 @ F,0,0,1,0,0.33523263,0,1 @ F,0,0,1,0,0,0,1 @ F,0,0,1,0,0,0,1"
       radius="0"
       unit="px"
       method="auto"
       mode="F"
       chamfer_steps="1"
       flexible="false"
       use_knot_distance="true"
       apply_no_radius="true"
       apply_with_radius="true"
       only_selected="false"
       hide_knots="false" />
  </defs>
  <g
     inkscape:label="Layer 1"
     inkscape:groupmode="layer"
     id="layer1"
     transform="translate(-23.059321,-128.11243)">
    <g
       id="g1">
      <g
         id="g8"
         transform="translate(8.3505955,48.105409)">
        <path
           style="fill:#ee1a06;fill-opacity:1;stroke-width:0.264583"
           d="m 121.34832,26.69663 c -4.92905,0.08498 -8.19101,7.129213 -8.19101,10.162921 v 2.667821 a 2.0587897,2.0587897 45.341029 0 0 2.03428,2.058644 l 10.70729,0.127467 c 0,0 4.24719,-1.820226 4.55056,-5.764043 0.29607,-3.849056 -2.49764,-9.366664 -9.10112,-9.25281 z"
           id="path6"
           sodipodi:nodetypes="ssccss"
           inkscape:path-effect="#path-effect7"
           inkscape:original-d="m 121.34832,26.69663 c -4.92905,0.08498 -8.19101,7.129213 -8.19101,10.162921 v 4.702247 l 12.74157,0.151685 c 0,0 4.24719,-1.820226 4.55056,-5.764043 0.29607,-3.849056 -2.49764,-9.366664 -9.10112,-9.25281 z"
           transform="translate(-34.58427,57.716293)" />
        <path
           style="fill:#570657;fill-opacity:1;stroke-width:0.264583"
           d="m 80.19676,89.302476 c 0.55302,-0.254857 6.18807,0.419436 7.24987,0.874493 1.061801,0.455054 -0.37921,2.957864 -1.5927,3.185393 -1.21348,0.227528 -7.12935,0.19333 -7.14222,-0.138279 -0.0129,-0.331609 0.93202,-3.66675 1.48505,-3.921607 z"
           id="path7"
           sodipodi:nodetypes="zsszz" />
      </g>
      <g
         id="g3"
         transform="translate(7.6680115,47.346982)">
        <path
           id="path3"
           style="fill:#020200;fill-opacity:1;stroke-width:0.264583"
           d="m 102.61786,80.765445 c -1.6207,0.0011 -5.195394,0.006 -6.058896,0.02652 -0.817767,0.01947 -1.352797,1.127512 -1.584521,1.732979 -0.08037,0.209989 0.05143,0.385238 0.277264,0.385238 h 1.266949 v 7.150502 a 0.83080686,0.83080686 67.5 0 0 0.243338,0.587469 l 0.741792,0.741792 a 0.71042466,0.71042466 67.5 0 1 0.208079,0.502347 v 4.927635 l 0.229444,0.07183 -38.41316,-1.056783 c 0,0 -0.321691,-0.161 -3.59823,-0.05374 -3.276542,0.107259 -6.913273,1.038696 -6.913273,1.038696 L 16.866154,108.2766 v 0.93844 l -1.027008,0 a 0.44783713,0.44783713 135 0 0 -0.447837,0.44784 l 0,7.79256 a 0.39420966,0.39420966 45 0 0 0.39421,0.39421 H 35.00291 a 0.15101716,0.15101716 135 0 0 0.151017,-0.15102 v -1.4685 a 0.12765981,0.12765981 45 0 0 -0.12766,-0.12766 h -0.720471 a 0.14880166,0.14880166 44.07174 0 1 -0.148724,-0.14398 l -0.171624,-5.29481 a 0.25847895,0.25847895 130.656 0 1 0.227597,-0.26502 l 13.119466,-1.57171 H 65.81559 a 0.24342686,0.24342686 45 0 1 0.243427,0.24343 v 5.42058 a 0.18317851,0.18317851 135 0 1 -0.183179,0.18318 h -1.764251 a 0.35837238,0.35837238 135 0 0 -0.358372,0.35837 v 1.80973 a 0.1828507,0.1828507 44.948687 0 0 0.183178,0.18285 l 81.758077,-0.14644 18.06039,-8.04447 h 6.20639 c 0.67152,0 1.4897,-0.47052 1.82452,-1.05262 1.56838,-2.72671 5.66983,-9.951862 6.30663,-12.033631 0.0919,-0.300449 -0.30833,-0.5678 -0.62451,-0.708163 -0.85543,-0.379761 -1.64664,-1.476067 -1.89204,-2.550321 -0.21185,-0.927387 0.61179,-2.131017 1.12803,-2.772841 0.20574,-0.255796 0.12188,-0.454249 -0.20723,-0.45986 l -12.17966,-0.207635 a 0.92243834,0.92243834 149.61512 0 0 -0.82827,0.485645 l -5.81152,10.814156 -14.34228,0.26252 11.39,-5.432227 -27.08827,-10.39213 -27.08258,-0.0801 v -1.903759 h 0.85644 A 1.0938059,1.0938059 152.69584 0 0 102.3022,82.3429 l 0.65456,-0.921346 c 0.25758,-0.362552 0.10584,-0.656421 -0.3389,-0.656109 z"
           inkscape:path-effect="#path-effect8"
           inkscape:original-d="m 103.42314,80.765096 c 0,0 -5.737972,6.2e-5 -6.864176,0.02687 -1.126207,0.02682 -1.716174,2.118217 -1.716174,2.118217 h 1.675866 v 7.494633 l 1.193209,1.193209 v 5.221903 l 0.229444,0.07183 -38.41316,-1.056783 c 0,0 -0.321691,-0.161 -3.59823,-0.05374 -3.276542,0.107259 -6.913273,1.038696 -6.913273,1.038696 L 16.866154,108.2766 v 0.93844 h -1.474845 v 8.63461 h 19.762618 v -1.74718 h -0.992188 l -0.183968,-5.67562 13.35474,-1.5999 h 18.726506 v 5.84719 h -2.305802 c 0,1.12184 0,1.56752 0,2.35128 l 81.941255,-0.14677 18.06039,-8.04447 h 7.42229 c 0,0 7.96319,-13.654977 6.90139,-13.654977 -1.0618,0 -2.19932,-1.36173 -2.50269,-2.689758 -0.30337,-1.328031 1.5167,-3.222542 1.5167,-3.222542 l -13.33769,-0.227377 -6.07766,11.309384 -14.34228,0.26252 11.39,-5.432227 -27.08827,-10.39213 -27.08258,-0.0801 v -1.903759 h 1.4211 z"
           sodipodi:nodetypes="cscccccccscccccccccccccccccsscccccccccc" />
      </g>
      <path
         style="fill:#f9d306;fill-opacity:1;stroke-width:0.264583"
         d="m 104.18706,132.06633 -0.0134,1.57623 31.12577,-0.0624 22.76448,7.25232 -22.93188,-8.91271 z"
         id="path4"
         sodipodi:nodetypes="cccccc" />
      <path
         style="fill:#f9d306;fill-opacity:1;stroke-width:0.264583"
         d="m 82.378299,111.67136 1.86463,2.60181 a 0.91796493,0.91796493 27.055381 0 0 0.750326,0.38323 l 57.967895,-0.26446 a 0.27376599,0.27376599 128.97523 0 0 0.26674,-0.32969 l -1.2186,-5.83916 -28.31605,3.32499 -31.196534,-0.10629 a 0.14506728,0.14506728 117.28369 0 0 -0.118407,0.22957 z"
         id="path5"
         inkscape:path-effect="#path-effect10"
         inkscape:original-d="m 82.213081,111.44082 2.306042,3.21774 58.777257,-0.26815 -1.28709,-6.16732 -28.31605,3.32499 z"
         transform="translate(7.6680115,47.346982)" />
      <path
         id="path18"
         style="fill:#f9d306;fill-opacity:1;stroke-width:0.264583"
         d="m 99.354061,97.184647 -38.41316,-1.142103 c 0,0 -0.321691,-0.161 -3.59823,-0.0537 -3.276542,0.10726 -6.913273,1.0387 -6.913273,1.0387 L 18.278906,108.48422 v 0.93844 l 6.014515,-0.008 a 1.3022188,1.3022188 169.42794 0 0 0.466511,-0.0871 l 25.957241,-10.000893 10.383809,-0.60674 38.118083,1.395943 24.808575,2.54181 25.00469,-1.68697 0.2795,-2.398533 -23.82322,1.543433 -25.928258,-2.915953"
         sodipodi:nodetypes="ccscccccccccccc"
         inkscape:path-effect="#path-effect9"
         inkscape:original-d="m 99.354061,97.184647 -38.41316,-1.142103 c 0,0 -0.321691,-0.161 -3.59823,-0.0537 -3.276542,0.10726 -6.913273,1.0387 -6.913273,1.0387 L 18.278906,108.48422 v 0.93844 l 6.255838,-0.008 26.182429,-10.087653 10.383809,-0.60674 38.118083,1.395943 24.808575,2.54181 25.00469,-1.68697 0.2795,-2.398533 -23.82322,1.543433 -25.928258,-2.915953"
         transform="translate(6.2270005,46.967768)" />
      <circle
         style="fill:#2a2a2a;fill-opacity:1;stroke-width:0.49132"
         id="circle10"
         cx="59.853378"
         cy="155.73448"
         r="11.567603" />
      <circle
         style="fill:#fff238;fill-opacity:1;stroke-width:0.393711"
         id="circle9"
         cx="59.853371"
         cy="155.73448"
         r="9.2694998" />
      <circle
         style="fill:#2a2a2a;fill-opacity:1;stroke-width:0.327688"
         id="path8"
         cx="59.853378"
         cy="155.73448"
         r="7.7150607" />
      <circle
         style="fill:#c4c4c4;fill-opacity:1;stroke-width:0.264583"
         id="path1"
         cx="59.853371"
         cy="155.73448"
         r="4.8799577" />
      <circle
         style="fill:#a0a0a0;fill-opacity:1;stroke-width:0.328483"
         id="path2"
         cx="59.853371"
         cy="155.73448"
         r="3.7443886" />
      <g
         id="g7"
         transform="translate(9.1159855,32.71131)">
        <g
           id="g6"
           transform="translate(-1.4479799,14.560242)">
          <rect
             style="fill:#c4c4c4;fill-opacity:1;stroke-width:0.290694"
             id="rect3"
             width="0.87924939"
             height="9.7052488"
             x="108.0233"
             y="-57.037991"
             transform="rotate(90)" />
          <rect
             style="fill:#c4c4c4;fill-opacity:1;stroke-width:0.290694"
             id="rect5"
             width="0.87924939"
             height="9.7052488"
             x="-52.624992"
             y="-113.31555"
             transform="scale(-1)" />
          <rect
             style="fill:#c4c4c4;fill-opacity:1;stroke-width:0.290694"
             id="rect6"
             width="0.87924939"
             height="9.7052488"
             x="-114.03513"
             y="-44.64687"
             transform="rotate(-135)" />
        </g>
        <rect
           style="fill:#c4c4c4;fill-opacity:1;stroke-width:0.290694"
           id="rect4"
           width="0.87924939"
           height="9.7052488"
           x="50.674141"
           y="-127.7199"
           transform="rotate(135)" />
      </g>
      <circle
         style="fill:#a0a0a0;fill-opacity:1;stroke-width:0.0901084"
         id="circle4"
         cx="59.853371"
         cy="155.73448"
         r="1.0271463" />
      <circle
         style="fill:#2a2a2a;fill-opacity:1;stroke-width:0.575074"
         id="circle11"
         cx="162.3927"
         cy="153.37589"
         r="13.539514" />
      <circle
         style="fill:#fff238;fill-opacity:1;stroke-width:0.460826"
         id="circle12"
         cx="162.39268"
         cy="153.37587"
         r="10.849656" />
      <circle
         style="fill:#2a2a2a;fill-opacity:1;stroke-width:0.383548"
         id="circle13"
         cx="162.3927"
         cy="153.37589"
         r="9.0302343" />
      <circle
         style="fill:#c4c4c4;fill-opacity:1;stroke-width:0.309686"
         id="circle14"
         cx="162.39268"
         cy="153.37589"
         r="5.7118359" />
      <circle
         style="fill:#a0a0a0;fill-opacity:1;stroke-width:0.384479"
         id="circle15"
         cx="162.39268"
         cy="153.37589"
         r="4.3826885" />
      <g
         id="g18"
         transform="matrix(1.1704683,0,0,1.1704683,103.00619,9.3811517)">
        <g
           id="g17"
           transform="translate(-1.4479799,14.560242)">
          <rect
             style="fill:#c4c4c4;fill-opacity:1;stroke-width:0.290694"
             id="rect15"
             width="0.87924939"
             height="9.7052488"
             x="108.0233"
             y="-57.037991"
             transform="rotate(90)" />
          <rect
             style="fill:#c4c4c4;fill-opacity:1;stroke-width:0.290694"
             id="rect16"
             width="0.87924939"
             height="9.7052488"
             x="-52.624992"
             y="-113.31555"
             transform="scale(-1)" />
          <rect
             style="fill:#c4c4c4;fill-opacity:1;stroke-width:0.290694"
             id="rect17"
             width="0.87924939"
             height="9.7052488"
             x="-114.03513"
             y="-44.64687"
             transform="rotate(-135)" />
        </g>
        <rect
           style="fill:#c4c4c4;fill-opacity:1;stroke-width:0.290694"
           id="rect18"
           width="0.87924939"
           height="9.7052488"
           x="50.674141"
           y="-127.7199"
           transform="rotate(135)" />
      </g>
      <circle
         style="fill:#a0a0a0;fill-opacity:1;stroke-width:0.105469"
         id="circle18"
         cx="162.39268"
         cy="153.37587"
         r="1.2022423" />
    </g>
  </g>
</svg>
