<?xml version="1.0" encoding="UTF-8" standalone="no"?>
<!-- Created with Inkscape (http://www.inkscape.org/) -->

<svg
   width="1200"
   height="1000"
   id="track-svg"
   version="1.1"
   inkscape:version="1.3.2 (091e20e, 2023-11-25)"
   sodipodi:docname="track.svg"
   inkscape:export-filename="E:\Images\Maps\Race Tracks\Europe\France\LeMans\Bugatti Circuit.png"
   inkscape:export-xdpi="90"
   inkscape:export-ydpi="90"
   xmlns:inkscape="http://www.inkscape.org/namespaces/inkscape"
   xmlns:sodipodi="http://sodipodi.sourceforge.net/DTD/sodipodi-0.dtd"
   xmlns:xlink="http://www.w3.org/1999/xlink"
   xmlns="http://www.w3.org/2000/svg"
   xmlns:svg="http://www.w3.org/2000/svg"
   xmlns:rdf="http://www.w3.org/1999/02/22-rdf-syntax-ns#"
   xmlns:cc="http://creativecommons.org/ns#"
   xmlns:dc="http://purl.org/dc/elements/1.1/">
  <title
     id="title6274">Track map for the Bugatti Circuit at LeMans</title>
  <defs
     id="defs3038">
    <filter
       color-interpolation-filters="sRGB"
       inkscape:collect="always"
       id="filter5277"
       x="-0.5852016"
       width="2.2250342"
       y="-0.59379794"
       height="2.2383395">
      <feGaussianBlur
         inkscape:collect="always"
         stdDeviation="4.5896484"
         id="feGaussianBlur5279" />
    </filter>
    <clipPath
       clipPathUnits="userSpaceOnUse"
       id="clipPath9716">
      <path
         id="path9718"
         d="M 871.13547,932.36346 C 1314.8756,1345.252 1758.6155,1758.1404 2202.3556,2171.029 2375.7787,1984.6474 2549.2018,1798.266 2722.6249,1611.8845 2278.8848,1198.996 1835.1448,786.10758 1391.4047,373.21904 1217.9816,559.60052 1044.5586,745.98194 871.13547,932.36346 Z"
         style="fill:#6a6a6a;fill-opacity:1;fill-rule:nonzero;stroke:#010101;stroke-width:0.942626;stroke-linecap:round;stroke-linejoin:round;stroke-miterlimit:4;stroke-dasharray:none;stroke-dashoffset:0;stroke-opacity:1" />
    </clipPath>
    <clipPath
       clipPathUnits="userSpaceOnUse"
       id="clipPath3494">
      <rect
         style="fill:#006a00;fill-opacity:1;fill-rule:nonzero;stroke:none"
         id="rect3496"
         width="2168.1926"
         height="1468.4177"
         x="-4232.8457"
         y="-2372.1296"
         transform="matrix(-0.9472965,-0.3203582,0.9519016,-0.3064038,0,0)" />
    </clipPath>
    <pattern
       inkscape:collect="always"
       xlink:href="#pattern4256"
       id="pattern4264"
       patternTransform="matrix(-0.7760302,9.7935943e-4,-9.7935943e-4,-0.7760302,-1599.8308,380.49)" />
    <pattern
       patternUnits="userSpaceOnUse"
       width="10.793857"
       height="10.773841"
       patternTransform="matrix(-0.5630234,-0.534067,0.534067,-0.5630234,1593.7246,910.57043)"
       id="pattern4256">
      <g
         id="g4248"
         transform="matrix(0.5878912,6.0987118e-3,-6.0987118e-3,0.5878912,-595.3809,-720.7077)">
        <rect
           style="opacity:1;fill:black;fill-opacity:1;stroke:none;stroke-width:0.5;stroke-linecap:round;stroke-linejoin:round;stroke-miterlimit:4;stroke-dasharray:none;stroke-dashoffset:0;stroke-opacity:1"
           id="rect4250"
           width="18.172573"
           height="18.095789"
           x="1025.5348"
           y="1215.2814" />
        <rect
           style="opacity:1;fill:white;fill-opacity:1;stroke:none;stroke-width:0.5;stroke-linecap:round;stroke-linejoin:round;stroke-miterlimit:4;stroke-dasharray:none;stroke-dashoffset:0;stroke-opacity:1"
           id="rect4252"
           width="9.0746527"
           height="9.0746527"
           x="1025.5348"
           y="1215.2814" />
        <rect
           style="opacity:1;fill:white;fill-opacity:1;stroke:none;stroke-width:0.5;stroke-linecap:round;stroke-linejoin:round;stroke-miterlimit:4;stroke-dasharray:none;stroke-dashoffset:0;stroke-opacity:1"
           id="rect4254"
           width="9.0746527"
           height="9.0746527"
           x="1034.6412"
           y="1224.3444" />
      </g>
    </pattern>
    <clipPath
       clipPathUnits="userSpaceOnUse"
       id="clipPath3490">
      <rect
         style="fill:#006a00;fill-opacity:1;fill-rule:nonzero;stroke:none"
         id="rect3492"
         width="1511.7875"
         height="1003.7479"
         x="683.1405"
         y="104.1039"
         transform="rotate(135.91755)" />
    </clipPath>
    <inkscape:perspective
       id="perspective5412"
       inkscape:persp3d-origin="0.5 : 297.78292 : 1"
       inkscape:vp_z="1 : 297.94958 : 1"
       inkscape:vp_y="0 : 1000 : 0"
       inkscape:vp_x="0 : 297.94958 : 1"
       sodipodi:type="inkscape:persp3d" />
    <inkscape:perspective
       id="perspective5604"
       inkscape:persp3d-origin="0.5 : 297.78292 : 1"
       inkscape:vp_z="1 : 297.94958 : 1"
       inkscape:vp_y="0 : 1000 : 0"
       inkscape:vp_x="0 : 297.94958 : 1"
       sodipodi:type="inkscape:persp3d" />
    <inkscape:perspective
       id="perspective5604-1"
       inkscape:persp3d-origin="0.5 : 297.78292 : 1"
       inkscape:vp_z="1 : 297.94958 : 1"
       inkscape:vp_y="0 : 1000 : 0"
       inkscape:vp_x="0 : 297.94958 : 1"
       sodipodi:type="inkscape:persp3d" />
    <inkscape:perspective
       id="perspective5604-4"
       inkscape:persp3d-origin="0.5 : 297.78292 : 1"
       inkscape:vp_z="1 : 297.94958 : 1"
       inkscape:vp_y="0 : 1000 : 0"
       inkscape:vp_x="0 : 297.94958 : 1"
       sodipodi:type="inkscape:persp3d" />
    <inkscape:perspective
       id="perspective5681"
       inkscape:persp3d-origin="0.5 : 297.78292 : 1"
       inkscape:vp_z="1 : 297.94958 : 1"
       inkscape:vp_y="0 : 1000 : 0"
       inkscape:vp_x="0 : 297.94958 : 1"
       sodipodi:type="inkscape:persp3d" />
    <inkscape:perspective
       id="perspective5681-1"
       inkscape:persp3d-origin="0.5 : 297.78292 : 1"
       inkscape:vp_z="1 : 297.94958 : 1"
       inkscape:vp_y="0 : 1000 : 0"
       inkscape:vp_x="0 : 297.94958 : 1"
       sodipodi:type="inkscape:persp3d" />
    <inkscape:perspective
       id="perspective5681-14"
       inkscape:persp3d-origin="0.5 : 297.78292 : 1"
       inkscape:vp_z="1 : 297.94958 : 1"
       inkscape:vp_y="0 : 1000 : 0"
       inkscape:vp_x="0 : 297.94958 : 1"
       sodipodi:type="inkscape:persp3d" />
    <inkscape:perspective
       id="perspective5681-16"
       inkscape:persp3d-origin="0.5 : 297.78292 : 1"
       inkscape:vp_z="1 : 297.94958 : 1"
       inkscape:vp_y="0 : 1000 : 0"
       inkscape:vp_x="0 : 297.94958 : 1"
       sodipodi:type="inkscape:persp3d" />
    <inkscape:perspective
       id="perspective5681-8"
       inkscape:persp3d-origin="0.5 : 297.78292 : 1"
       inkscape:vp_z="1 : 297.94958 : 1"
       inkscape:vp_y="0 : 1000 : 0"
       inkscape:vp_x="0 : 297.94958 : 1"
       sodipodi:type="inkscape:persp3d" />
    <inkscape:perspective
       id="perspective5681-4"
       inkscape:persp3d-origin="0.5 : 297.78292 : 1"
       inkscape:vp_z="1 : 297.94958 : 1"
       inkscape:vp_y="0 : 1000 : 0"
       inkscape:vp_x="0 : 297.94958 : 1"
       sodipodi:type="inkscape:persp3d" />
    <inkscape:perspective
       id="perspective5681-41"
       inkscape:persp3d-origin="0.5 : 297.78292 : 1"
       inkscape:vp_z="1 : 297.94958 : 1"
       inkscape:vp_y="0 : 1000 : 0"
       inkscape:vp_x="0 : 297.94958 : 1"
       sodipodi:type="inkscape:persp3d" />
    <inkscape:perspective
       id="perspective6159"
       inkscape:persp3d-origin="0.5 : 297.78292 : 1"
       inkscape:vp_z="1 : 297.94958 : 1"
       inkscape:vp_y="0 : 1000 : 0"
       inkscape:vp_x="0 : 297.94958 : 1"
       sodipodi:type="inkscape:persp3d" />
    <clipPath
       clipPathUnits="userSpaceOnUse"
       id="clipPath6250">
      <rect
         style="fill:none;stroke:#000000;stroke-width:1"
         id="rect6252"
         width="1421.9579"
         height="701.55042"
         x="-408.15326"
         y="154.42503" />
    </clipPath>
    <clipPath
       clipPathUnits="userSpaceOnUse"
       id="clipPath6254">
      <rect
         style="fill:none;stroke:#000000;stroke-width:1"
         id="rect6256"
         width="1421.9579"
         height="701.55042"
         x="-408.15326"
         y="154.42503" />
    </clipPath>
    <clipPath
       clipPathUnits="userSpaceOnUse"
       id="clipPath6258">
      <rect
         style="fill:none;stroke:#000000;stroke-width:1"
         id="rect6260"
         width="1421.9579"
         height="701.55042"
         x="-408.15326"
         y="154.42503" />
    </clipPath>
    <clipPath
       clipPathUnits="userSpaceOnUse"
       id="clipPath6262">
      <rect
         style="fill:none;stroke:#000000;stroke-width:1"
         id="rect6264"
         width="1421.9579"
         height="701.55042"
         x="-408.15326"
         y="154.42503" />
    </clipPath>
    <clipPath
       clipPathUnits="userSpaceOnUse"
       id="clipPath6266">
      <rect
         style="fill:none;stroke:#000000;stroke-width:1"
         id="rect6268"
         width="1421.9579"
         height="701.55042"
         x="-408.15326"
         y="154.42503" />
    </clipPath>
    <clipPath
       clipPathUnits="userSpaceOnUse"
       id="clipPath6270">
      <rect
         style="fill:none;stroke:#000000;stroke-width:1"
         id="rect6272"
         width="1421.9579"
         height="701.55042"
         x="-408.15326"
         y="154.42503" />
    </clipPath>
  </defs>
  <sodipodi:namedview
     id="base"
     pagecolor="#ffffff"
     bordercolor="#666666"
     borderopacity="1.0"
     inkscape:pageopacity="0.0"
     inkscape:pageshadow="2"
     inkscape:zoom="0.5"
     inkscape:cx="142"
     inkscape:cy="809"
     inkscape:document-units="px"
     inkscape:current-layer="layer1"
     showgrid="false"
     showborder="false"
     inkscape:showpageshadow="false"
     inkscape:window-width="2088"
     inkscape:window-height="1270"
     inkscape:window-x="80"
     inkscape:window-y="25"
     inkscape:window-maximized="0"
     inkscape:pagecheckerboard="0"
     inkscape:deskcolor="#d1d1d1" />
  <metadata
     id="metadata3041">
    <rdf:RDF>
      <cc:Work
         rdf:about="">
        <dc:format>image/svg+xml</dc:format>
        <dc:type
           rdf:resource="http://purl.org/dc/dcmitype/StillImage" />
        <dc:title>Track map for the Bugatti Circuit at LeMans</dc:title>
        <dc:date>January 17, 2010</dc:date>
        <dc:creator>
          <cc:Agent>
            <dc:title>Will Pittenger</dc:title>
          </cc:Agent>
        </dc:creator>
        <dc:publisher>
          <cc:Agent>
            <dc:title>Will Pittenger</dc:title>
          </cc:Agent>
        </dc:publisher>
        <dc:subject>
          <rdf:Bag>
            <rdf:li>LeMans</rdf:li>
            <rdf:li>Sarth</rdf:li>
            <rdf:li>France</rdf:li>
            <rdf:li>Le Mans</rdf:li>
            <rdf:li>Circuit de la Sarthe</rdf:li>
            <rdf:li>24 Hours of Le Mans</rdf:li>
            <rdf:li>Formula 1</rdf:li>
            <rdf:li>F1</rdf:li>
            <rdf:li>racing</rdf:li>
            <rdf:li>open wheel racing</rdf:li>
            <rdf:li>sports cars</rdf:li>
          </rdf:Bag>
        </dc:subject>
        <dc:description>Created in Inkscape.  The full outer circuit (use for the 24 hours of LeMans race) is shown in gray with black dots.</dc:description>
        <cc:license
           rdf:resource="http://creativecommons.org/licenses/by-sa/4.0/" />
      </cc:Work>
      <cc:License
         rdf:about="http://creativecommons.org/licenses/by-sa/4.0/">
        <cc:permits
           rdf:resource="http://creativecommons.org/ns#Reproduction" />
        <cc:permits
           rdf:resource="http://creativecommons.org/ns#Distribution" />
        <cc:requires
           rdf:resource="http://creativecommons.org/ns#Notice" />
        <cc:requires
           rdf:resource="http://creativecommons.org/ns#Attribution" />
        <cc:permits
           rdf:resource="http://creativecommons.org/ns#DerivativeWorks" />
        <cc:requires
           rdf:resource="http://creativecommons.org/ns#ShareAlike" />
      </cc:License>
    </rdf:RDF>
  </metadata>
  <g
     inkscape:label="Layer 1"
     inkscape:groupmode="layer"
     id="layer1"
     transform="translate(408.65326,-153.92503)">
    <use
       style="stroke:#ffffff;stroke-width:5;stroke-miterlimit:4;stroke-dasharray:none;filter:url(#filter5277)"
       id="use5844"
       xlink:href="#text5810"
       y="0"
       x="0"
       width="744.09448"
       height="1052.3622" />
    <g
       style="color:#000000;font-style:normal;font-variant:normal;font-weight:normal;font-stretch:normal;font-size:32px;line-height:100%;font-family:'Times New Roman';-inkscape-font-specification:'Times New Roman';text-align:center;writing-mode:lr-tb;text-anchor:middle;display:inline;overflow:visible;fill:#000000;fill-opacity:1;fill-rule:nonzero;enable-background:accumulate"
       id="text5810" />
    <use
       x="0"
       y="0"
       xlink:href="#path3070"
       id="use4288"
       style="stroke:#ffffff;stroke-width:8;stroke-miterlimit:4;stroke-dasharray:none;filter:url(#filter5277)"
       width="744.09448"
       height="1052.3622" />
    <path
       style="fill:none;stroke-width:0.856022"
       d="m 648.88993,637.63357 c -59.15806,33.58319 -118.33363,67.14042 -177.32115,101.01934 -15.70229,9.01846 -30.90668,18.92528 -46.7483,27.67284 -10.75655,5.93965 -21.82715,11.37056 -33.04622,16.38878 -20.21514,9.04209 -40.67407,17.60943 -61.2564,25.79217 -16.13569,6.41492 -32.41368,12.57634 -48.89765,18.00078 -11.5471,3.79985 -23.37037,6.83576 -35.19556,9.67206 -12.44453,2.98485 -24.99379,5.69602 -37.61358,7.79139 -11.11259,1.84511 -22.35198,3.26204 -33.58355,4.03002 -9.72457,0.66492 -19.6136,1.12622 -29.28486,0.26867 -8.50865,-0.75446 -17.27863,-2.0675 -25.25482,-5.1047 -17.18908,-6.5453 -33.712129,-15.3239 -50.240994,-23.64283 -24.219178,-12.18943 -47.743765,-25.95271 -72.0031391,-37.88224 -2.8761373,-1.41434 -6.2436118,-1.95784 -9.4033949,-2.14934 -2.750921,-0.16672 -5.760167,0.13287 -8.32872,1.07467 -2.804815,1.02844 -5.581458,2.75119 -7.791384,4.83603 -7.283025,6.87077 -13.382629,15.22728 -20.687469,22.0308 -1.829885,1.70432 -4.339348,2.73987 -6.71671,3.4927 -2.996006,0.94873 -6.264163,1.56584 -9.403394,1.61201 -2.950587,0.0434 -6.162847,-0.0909 -8.866058,-1.34334 -32.671457,-15.1364 -64.774617,-32.01487 -97.257957,-47.82298 -11.13049,-5.41669 -22.13021,-11.2701 -33.58356,-15.85144 -6.0101,-2.40404 -12.47675,-3.66989 -18.80679,-5.10469 -7.10338,-1.61011 -14.26553,-3.26473 -21.49347,-4.03003 -7.99659,-0.84671 -16.13107,-0.34245 -24.18016,-0.80601 -9.05613,-0.52156 -18.19487,-0.76678 -27.13551,-2.14934 -8.43326,-1.30412 -16.94032,-3.13466 -24.98617,-5.91071 -7.26825,-2.50776 -14.35029,-6.0202 -20.95613,-9.94074 -4.40957,-2.61706 -8.79891,-5.79319 -12.09008,-9.67206 -4.23155,-4.98719 -8.00414,-10.88973 -10.47807,-16.9261 -2.00387,-4.88947 -2.68026,-10.53322 -2.95534,-15.85143 -0.26227,-5.0703 0.43176,-10.30045 1.34334,-15.31411 0.70044,-3.8524 1.98458,-7.66461 3.49269,-11.28407 1.62636,-3.90325 3.46782,-7.85548 5.9107,-11.28409 2.66182,-3.73587 5.93456,-7.19106 9.40339,-10.20939 3.42699,-2.98192 7.22493,-5.78273 11.28408,-7.79138 4.62779,-2.29005 9.71508,-4.04835 14.77676,-5.1047 5.23728,-1.09299 10.74614,-1.34335 16.12011,-1.34335 5.55189,0 11.13007,0.67337 16.65744,1.34335 9.2494,1.12114 18.47598,2.5201 27.67284,4.03003 8.80392,1.44542 17.60067,2.99838 26.32951,4.83602 8.28684,1.7446 16.51278,3.80584 24.71749,5.91071 8.90051,2.28338 17.8123,4.58009 26.59817,7.25405 5.63268,1.71428 11.15523,3.80692 16.65745,5.91071 9.72232,3.71735 19.31457,7.77763 29.01618,11.55274 11.70231,4.55361 23.33521,9.32465 35.19557,13.43342 13.215351,4.57817 26.571025,8.88131 40.03159,12.62741 5.525337,1.53772 11.262462,3.03524 16.92611,3.22402 5.083089,0.16944 10.551237,-0.471 15.3141,-2.14934 4.640531,-1.63524 9.144835,-4.57603 12.896083,-7.79139 3.144574,-2.69535 5.698586,-6.334 7.7913852,-9.94074 2.1163393,-3.64731 3.7437334,-7.75011 4.836031,-11.8214 0.8779372,-3.27231 1.4101191,-6.85493 1.0746733,-10.2094 -0.4705581,-4.70559 -1.5897073,-9.62699 -3.4926883,-13.97076 -2.2166025,-5.05964 -5.4914002,-9.80528 -8.8660582,-14.23943 -4.32717,-5.68569 -9.098864,-11.15233 -14.239426,-16.1201 -5.516619,-5.33119 -11.610072,-10.13421 -17.732115,-14.77676 -4.624693,-3.50707 -9.374571,-7.00581 -14.508095,-9.67206 -6.419219,-3.33402 -13.304374,-5.91258 -20.150135,-8.32873 -8.378785,-2.95722 -16.942453,-5.46285 -25.523495,-7.79138 -9.24062,-2.50751 -18.55496,-4.86002 -27.94152,-6.71671 -6.91266,-1.36733 -13.96202,-2.03471 -20.95613,-2.95535 -38.58996,-5.07963 -77.16478,-10.29569 -115.79609,-15.04544 -37.84963,-4.65363 -75.98708,-7.98759 -113.64674,-13.16474 -2.73016,-0.37533 -5.38216,-1.85312 -7.52271,-3.4927 -2.06859,-1.58445 -3.78308,-3.90073 -5.1047,-6.17937 -1.27551,-2.19916 -2.74545,-4.72679 -2.68669,-7.25404 0.2099,-9.0255 1.47722,-18.52353 3.4927,-27.40418 0.85033,-3.74677 2.6782,-7.62337 5.10469,-10.47807 2.14087,-2.51866 5.46439,-4.44035 8.59739,-5.64204 3.4046,-1.30587 7.29742,-1.78743 11.01541,-1.88068 24.8504,-0.6232 49.79616,-0.34433 74.68981,-0.26867 4.57032,0.0139 9.16393,-0.002 13.7021,0.53734 89.58533,10.65477 179.11574,22.00272 268.668409,33.04622 70.215476,8.65886 140.380371,17.95441 210.636041,26.06083 6.58349,0.75964 13.2939,0.93062 19.88146,0.53734 5.41296,-0.32316 11.00405,-1.04956 16.12011,-2.68669 3.83956,-1.22866 7.46623,-3.53865 10.74673,-5.91071 2.54066,-1.83709 4.92605,-4.15861 6.71671,-6.7167 1.97069,-2.81529 3.47187,-6.11687 4.56736,-9.40339 1.59119,-4.77354 1.71344,-10.09988 3.49269,-14.77677 1.35522,-3.56227 3.66713,-6.83032 5.91071,-9.94073 1.69689,-2.35252 3.67045,-4.60903 5.91071,-6.44805 3.76001,-3.08657 7.66676,-6.33823 12.09007,-8.32872 8.11455,-3.65155 16.85036,-6.2885 25.5235,-8.59739 70.04671,-18.64724 140.28481,-37.08149 210.63604,-54.27102 4.78637,-1.1695 9.87353,-1.00019 14.77675,-0.806 4.14195,0.16404 8.48496,0.55793 12.35876,1.88068 3.46982,1.18482 6.9637,3.16919 9.67206,5.64204 3.47102,3.16919 6.21005,7.32336 8.86606,11.28407 2.44869,3.65156 4.75448,7.51809 6.44804,11.55275 1.35135,3.21939 2.42289,6.74229 2.68668,10.20939 0.3631,4.77206 -0.21466,9.70781 -0.806,14.50809 -0.93111,7.55847 -2.59766,15.03187 -3.76135,22.56815 -0.717,4.64336 -1.62316,9.29235 -1.88069,13.97077 -0.27981,5.0832 -0.45347,10.30727 0.26868,15.31409 0.6212,4.30703 1.94553,8.67803 3.76134,12.62741 1.76644,3.84201 4.06638,7.70941 6.98539,10.74675 3.70815,3.85847 8.12612,7.55574 12.89608,9.94073 5.08121,2.54061 10.98948,3.95727 16.65743,4.83602 5.8848,0.91238 12.06522,1.13842 18.0008,0.53735 8.21429,-0.83184 16.43581,-2.66131 24.44882,-4.83604 34.88438,-9.46757 69.41296,-20.48537 104.24335,-30.09087 2.51452,-0.69345 5.30054,-1.20631 7.79137,-0.806 2.52431,0.4057 5.65565,1.30593 7.25405,3.22402 2.87941,3.45528 4.6289,8.40232 6.17938,12.89609 3.73333,10.82033 7.12401,21.93392 9.67206,33.04621 0.67597,2.94802 0.75335,6.32221 0,9.13473 -0.58999,2.20262 -1.98727,4.70139 -4.03002,5.9107 -42.73531,25.2993 -86.92047,48.98684 -130.30419,73.61514 z"
       id="path3060"
       sodipodi:nodetypes="csssssssssssssssssssssssssssssssssssssssssssssssssssssssssssssssssssssssssssssssssssssssssssssssssssssssssssss" />
    <path
       style="fill:none;stroke-width:0.856022"
       d="m 668.3745,528.15382 c 13.01006,-3.59852 28.81075,-7.919 43.38384,-10.61502 3.33814,-0.61755 6.8816,-0.70273 10.20941,-0.26867 2.85156,0.37194 5.96254,1.17233 8.32871,2.68668 2.11163,1.35144 3.75644,3.7256 5.10471,5.91072 1.24886,2.02402 2.4764,4.40372 2.68668,6.7167 0.2375,2.61261 -0.85617,5.3806 -1.34334,8.06005 -0.40838,2.24613 0.009,4.99494 -1.34334,6.71671 -3.07377,3.91347 -7.83719,6.72341 -11.28408,10.47806 -1.56825,1.70828 -3.05271,3.74539 -3.76136,5.91072 -0.90336,2.76026 -0.34805,6.005 -1.07466,8.86606 -0.70628,2.78098 -1.74167,5.61851 -3.22403,8.06005 -1.56255,2.57361 -3.51351,5.15223 -5.91071,6.98537 -5.21507,3.98801 -11.2615,7.0223 -16.92611,10.47807 -8.57481,5.23118 -17.10979,10.53261 -25.79217,15.58277 -31.34921,18.23445 -62.70336,36.47255 -94.30261,54.27102 -49.80728,28.05427 -99.98908,55.44558 -149.91697,83.28722 -12.22407,6.81659 -24.14367,14.20598 -36.5389,20.68745 -11.06847,5.78772 -22.50553,10.88318 -33.85222,16.12011 -8.44521,3.89778 -16.98747,7.58767 -25.52351,11.28407 -11.52454,4.99055 -23.07129,9.93305 -34.65822,14.77678 -10.26478,4.29101 -20.46826,8.79159 -30.89687,12.6274 -5.15416,1.89579 -10.50346,3.29877 -15.85144,4.56737 -13.90658,3.29877 -27.88714,6.37064 -41.91226,9.13472 -10.51326,2.07197 -21.15206,4.00873 -31.83722,4.72518"
       id="path3062"
       sodipodi:nodetypes="cssssssssssssssssssssssss" />
    <path
       style="fill:none;stroke-width:0.856022"
       d="m 384.73539,772.97559 c -12.56578,6.24682 -25.40652,11.03795 -38.36609,15.9183 -15.34016,5.77683 -30.76104,11.4869 -46.47963,16.12011 -25.29812,7.45687 -50.90839,14.06726 -76.5705,20.15013 -10.60813,2.51452 -21.42915,4.30917 -32.24021,5.64204 -8.80173,1.08515 -17.73281,1.61201 -26.59818,1.61201 -8.50851,0 -17.13222,-0.3176 -25.5235,-1.61201 -8.44527,-1.30272 -17.02188,-3.12511 -24.98616,-6.17937 -10.48429,-4.02068 -20.263029,-9.98358 -30.359523,-15.04543 -23.128829,-11.59559 -45.985973,-23.83536 -69.316453,-34.9269 -3.984139,-1.8941 -8.3243363,-3.40148 -12.6274161,-4.03002 -3.6674168,-0.5357 -7.6550048,-0.24361 -11.2840741,0.53733 -3.4458648,0.74152 -7.4942228,2.31895 -10.2765658,4.36587 -3.605665,2.65262 -5.77917,4.53237 -9.059162,7.51012"
       id="path3070"
       sodipodi:nodetypes="csssssssssssss" />
    <path
       style="fill:none;stroke-width:0.856022"
       d="m 780.80613,553.2717 c -0.33584,1.90306 -0.58731,3.77036 -1.81351,5.44054 -1.37093,1.8673 -3.37792,3.18815 -5.37337,4.36585 -1.88092,1.11011 -3.49505,2.05048 -6.04505,2.68669 -3.00211,0.749 -5.64305,1.07057 -8.66455,0.94033 -2.17275,-0.0937 -4.33398,-0.76072 -6.44804,-1.34333 -3.57275,-0.98462 -7.00447,-2.69514 -10.6124,-3.35836 -2.48189,-0.45622 -5.14606,-0.31087 -7.65705,0 -2.19071,0.27124 -4.39496,0.92511 -6.44804,1.74635 -1.97695,0.79077 -4.03549,1.78064 -5.64204,3.08968 -0.81147,0.66119 -1.3326,1.72945 -1.77251,2.71402 -0.50043,1.12 -0.98324,2.7665 -1.27923,3.93073"
       id="path3072"
       sodipodi:nodetypes="csssssssssss" />
    <text
       xml:space="preserve"
       style="color:#000000;font-style:normal;font-variant:normal;font-weight:normal;font-stretch:normal;font-size:10.2723px;line-height:0%;font-family:'Times New Roman';-inkscape-font-specification:'Times New Roman';text-align:center;writing-mode:lr-tb;text-anchor:middle;display:inline;overflow:visible;fill:#000000;fill-opacity:1;fill-rule:nonzero;stroke-width:0.856022;enable-background:accumulate"
       x="390.51733"
       y="938.45789"
       id="text5802"><tspan
         sodipodi:role="line"
         id="tspan5804"
         x="390.51733"
         y="938.45789"
         style="font-size:27.3927px;line-height:1;stroke-width:0.856022">Dunlop Curve</tspan></text>
    <text
       id="text5806"
       y="1022.3679"
       x="105.82761"
       style="color:#000000;font-style:normal;font-variant:normal;font-weight:normal;font-stretch:normal;font-size:10.2723px;line-height:0%;font-family:'Times New Roman';-inkscape-font-specification:'Times New Roman';text-align:center;writing-mode:lr-tb;text-anchor:middle;display:inline;overflow:visible;fill:#000000;fill-opacity:1;fill-rule:nonzero;stroke-width:0.856022;enable-background:accumulate"
       xml:space="preserve"><tspan
         y="1022.3679"
         x="105.82761"
         id="tspan5808"
         sodipodi:role="line"
         style="font-size:27.3927px;line-height:1;stroke-width:0.856022">Dunlop Chicane</tspan></text>
    <text
       id="text5814"
       y="808.57172"
       x="152.11433"
       style="color:#000000;font-style:normal;font-variant:normal;font-weight:normal;font-stretch:normal;font-size:10.2723px;line-height:0%;font-family:'Times New Roman';-inkscape-font-specification:'Times New Roman';text-align:center;writing-mode:lr-tb;text-anchor:middle;display:inline;overflow:visible;fill:#000000;fill-opacity:1;fill-rule:nonzero;stroke-width:0.856022;enable-background:accumulate"
       xml:space="preserve"><tspan
         y="808.57172"
         x="152.11433"
         id="tspan5816"
         sodipodi:role="line"
         style="font-size:27.3927px;line-height:1;stroke-width:0.856022">Le Musée</tspan></text>
    <text
       id="text5818"
       y="710.74365"
       x="-304.82474"
       style="color:#000000;font-style:normal;font-variant:normal;font-weight:normal;font-stretch:normal;font-size:10.2723px;line-height:0%;font-family:'Times New Roman';-inkscape-font-specification:'Times New Roman';text-align:center;writing-mode:lr-tb;text-anchor:middle;display:inline;overflow:visible;fill:#000000;fill-opacity:1;fill-rule:nonzero;stroke-width:0.856022;enable-background:accumulate"
       xml:space="preserve"><tspan
         y="710.74365"
         x="-304.82474"
         id="tspan5820"
         sodipodi:role="line"
         style="font-size:27.3927px;line-height:1;stroke-width:0.856022">Garage Vert</tspan></text>
    <text
       id="text5822"
       y="527.13416"
       x="87.864853"
       style="color:#000000;font-style:normal;font-variant:normal;font-weight:normal;font-stretch:normal;font-size:10.2723px;line-height:0%;font-family:'Times New Roman';-inkscape-font-specification:'Times New Roman';text-align:center;writing-mode:lr-tb;text-anchor:middle;display:inline;overflow:visible;fill:#000000;fill-opacity:1;fill-rule:nonzero;stroke-width:0.856022;enable-background:accumulate"
       xml:space="preserve"><tspan
         y="527.13416"
         x="87.864853"
         id="tspan5824"
         sodipodi:role="line"
         style="font-size:27.3927px;line-height:1;stroke-width:0.856022">Chemin aux Bœufs</tspan></text>
    <text
       xml:space="preserve"
       style="color:#000000;font-style:normal;font-variant:normal;font-weight:normal;font-stretch:normal;font-size:10.2723px;line-height:0%;font-family:'Times New Roman';-inkscape-font-specification:'Times New Roman';text-align:center;writing-mode:lr-tb;text-anchor:middle;display:inline;overflow:visible;fill:#000000;fill-opacity:1;fill-rule:nonzero;stroke-width:0.856022;enable-background:accumulate"
       x="506.04767"
       y="426.24597"
       id="text5826"><tspan
         sodipodi:role="line"
         id="tspan5828"
         x="506.04767"
         y="426.24597"
         style="font-size:27.3927px;line-height:1;stroke-width:0.856022">'S' du Garage Bleu</tspan></text>
    <text
       id="text5830"
       y="241.91455"
       x="683.82184"
       style="color:#000000;font-style:normal;font-variant:normal;font-weight:normal;font-stretch:normal;font-size:10.2723px;line-height:0%;font-family:'Times New Roman';-inkscape-font-specification:'Times New Roman';text-align:center;writing-mode:lr-tb;text-anchor:middle;display:inline;overflow:visible;fill:#000000;fill-opacity:1;fill-rule:nonzero;stroke-width:0.856022;enable-background:accumulate"
       xml:space="preserve"><tspan
         y="241.91455"
         x="683.82184"
         id="tspan5832"
         sodipodi:role="line"
         style="font-size:27.3927px;line-height:1;stroke-width:0.856022">Raccordement</tspan></text>
    <g
       id="g9">
      <g
         id="g10"
         transform="matrix(0.92351219,-0.50120709,0.50120709,0.92351219,-245.92788,193.63072)">
        <path
           style="fill:none;stroke:#000000;stroke-width:8.56022;stroke-miterlimit:4;stroke-dasharray:none;stroke-opacity:1"
           d="m 648.88993,637.63357 c -59.15806,33.58319 -118.33363,67.14042 -177.32115,101.01934 -15.70229,9.01846 -30.90668,18.92528 -46.7483,27.67284 -10.75655,5.93965 -21.82715,11.37056 -33.04622,16.38878 -20.21514,9.04209 -40.67407,17.60943 -61.2564,25.79217 -16.13569,6.41492 -32.41368,12.57634 -48.89765,18.00078 -11.5471,3.79985 -23.37037,6.83576 -35.19556,9.67206 -12.44453,2.98485 -24.99379,5.69602 -37.61358,7.79139 -11.11259,1.84511 -22.35198,3.26204 -33.58355,4.03002 -9.72457,0.66492 -19.6136,1.12622 -29.28486,0.26867 -8.50865,-0.75446 -17.27863,-2.0675 -25.25482,-5.1047 -17.18908,-6.5453 -33.712129,-15.3239 -50.240994,-23.64283 -24.219178,-12.18943 -47.743765,-25.95271 -72.0031391,-37.88224 -2.8761373,-1.41434 -6.2436118,-1.95784 -9.4033949,-2.14934 -2.750921,-0.16672 -5.760167,0.13287 -8.32872,1.07467 -2.804815,1.02844 -5.581458,2.75119 -7.791384,4.83603 -7.283025,6.87077 -13.382629,15.22728 -20.687469,22.0308 -1.829885,1.70432 -4.339348,2.73987 -6.71671,3.4927 -2.996006,0.94873 -6.264163,1.56584 -9.403394,1.61201 -2.950587,0.0434 -6.162847,-0.0909 -8.866058,-1.34334 -32.671457,-15.1364 -64.774617,-32.01487 -97.257957,-47.82298 -11.13049,-5.41669 -22.13021,-11.2701 -33.58356,-15.85144 -6.0101,-2.40404 -12.47675,-3.66989 -18.80679,-5.10469 -7.10338,-1.61011 -14.26553,-3.26473 -21.49347,-4.03003 -7.99659,-0.84671 -16.13107,-0.34245 -24.18016,-0.80601 -9.05613,-0.52156 -18.19487,-0.76678 -27.13551,-2.14934 -8.43326,-1.30412 -16.94032,-3.13466 -24.98617,-5.91071 -7.26825,-2.50776 -14.35029,-6.0202 -20.95613,-9.94074 -4.40957,-2.61706 -8.79891,-5.79319 -12.09008,-9.67206 -4.23155,-4.98719 -8.00414,-10.88973 -10.47807,-16.9261 -2.00387,-4.88947 -2.68026,-10.53322 -2.95534,-15.85143 -0.26227,-5.0703 0.43176,-10.30045 1.34334,-15.31411 0.70044,-3.8524 1.98458,-7.66461 3.49269,-11.28407 1.62636,-3.90325 3.46782,-7.85548 5.9107,-11.28409 2.66182,-3.73587 5.93456,-7.19106 9.40339,-10.20939 3.42699,-2.98192 7.22493,-5.78273 11.28408,-7.79138 4.62779,-2.29005 9.71508,-4.04835 14.77676,-5.1047 5.23728,-1.09299 10.74614,-1.34335 16.12011,-1.34335 5.55189,0 11.13007,0.67337 16.65744,1.34335 9.2494,1.12114 18.47598,2.5201 27.67284,4.03003 8.80392,1.44542 17.60067,2.99838 26.32951,4.83602 8.28684,1.7446 16.51278,3.80584 24.71749,5.91071 8.90051,2.28338 17.8123,4.58009 26.59817,7.25405 5.63268,1.71428 11.15523,3.80692 16.65745,5.91071 9.72232,3.71735 19.31457,7.77763 29.01618,11.55274 11.70231,4.55361 23.33521,9.32465 35.19557,13.43342 13.215351,4.57817 26.571025,8.88131 40.03159,12.62741 5.525337,1.53772 11.262462,3.03524 16.92611,3.22402 5.083089,0.16944 10.551237,-0.471 15.3141,-2.14934 4.640531,-1.63524 9.144835,-4.57603 12.896083,-7.79139 3.144574,-2.69535 5.698586,-6.334 7.7913852,-9.94074 2.1163393,-3.64731 3.7437334,-7.75011 4.836031,-11.8214 0.8779372,-3.27231 1.4101191,-6.85493 1.0746733,-10.2094 -0.4705581,-4.70559 -1.5897073,-9.62699 -3.4926883,-13.97076 -2.2166025,-5.05964 -5.4914002,-9.80528 -8.8660582,-14.23943 -4.32717,-5.68569 -9.098864,-11.15233 -14.239426,-16.1201 -5.516619,-5.33119 -11.610072,-10.13421 -17.732115,-14.77676 -4.624693,-3.50707 -9.374571,-7.00581 -14.508095,-9.67206 -6.419219,-3.33402 -13.304374,-5.91258 -20.150135,-8.32873 -8.378785,-2.95722 -16.942453,-5.46285 -25.523495,-7.79138 -9.24062,-2.50751 -18.55496,-4.86002 -27.94152,-6.71671 -6.91266,-1.36733 -13.96202,-2.03471 -20.95613,-2.95535 -38.58996,-5.07963 -77.16478,-10.29569 -115.79609,-15.04544 -37.84963,-4.65363 -75.98708,-7.98759 -113.64674,-13.16474 -2.73016,-0.37533 -5.38216,-1.85312 -7.52271,-3.4927 -2.06859,-1.58445 -3.78308,-3.90073 -5.1047,-6.17937 -1.27551,-2.19916 -2.74545,-4.72679 -2.68669,-7.25404 0.2099,-9.0255 1.47722,-18.52353 3.4927,-27.40418 0.85033,-3.74677 2.6782,-7.62337 5.10469,-10.47807 2.14087,-2.51866 5.46439,-4.44035 8.59739,-5.64204 3.4046,-1.30587 7.29742,-1.78743 11.01541,-1.88068 24.8504,-0.6232 49.79616,-0.34433 74.68981,-0.26867 4.57032,0.0139 9.16393,-0.002 13.7021,0.53734 89.58533,10.65477 179.11574,22.00272 268.668409,33.04622 70.215476,8.65886 140.380371,17.95441 210.636041,26.06083 6.58349,0.75964 13.2939,0.93062 19.88146,0.53734 5.41296,-0.32316 11.00405,-1.04956 16.12011,-2.68669 3.83956,-1.22866 7.46623,-3.53865 10.74673,-5.91071 2.54066,-1.83709 4.92605,-4.15861 6.71671,-6.7167 1.97069,-2.81529 3.47187,-6.11687 4.56736,-9.40339 1.59119,-4.77354 1.71344,-10.09988 3.49269,-14.77677 1.35522,-3.56227 3.66713,-6.83032 5.91071,-9.94073 1.69689,-2.35252 3.67045,-4.60903 5.91071,-6.44805 3.76001,-3.08657 7.66676,-6.33823 12.09007,-8.32872 8.11455,-3.65155 16.85036,-6.2885 25.5235,-8.59739 70.04671,-18.64724 140.28481,-37.08149 210.63604,-54.27102 4.78637,-1.1695 9.87353,-1.00019 14.77675,-0.806 4.14195,0.16404 8.48496,0.55793 12.35876,1.88068 3.46982,1.18482 6.9637,3.16919 9.67206,5.64204 3.47102,3.16919 6.21005,7.32336 8.86606,11.28407 2.44869,3.65156 4.75448,7.51809 6.44804,11.55275 1.35135,3.21939 2.42289,6.74229 2.68668,10.20939 0.3631,4.77206 -0.21466,9.70781 -0.806,14.50809 -0.93111,7.55847 -2.59766,15.03187 -3.76135,22.56815 -0.717,4.64336 -1.62316,9.29235 -1.88069,13.97077 -0.27981,5.0832 -0.45347,10.30727 0.26868,15.31409 0.6212,4.30703 1.94553,8.67803 3.76134,12.62741 1.76644,3.84201 4.06638,7.70941 6.98539,10.74675 3.70815,3.85847 8.12612,7.55574 12.89608,9.94073 5.08121,2.54061 10.98948,3.95727 16.65743,4.83602 5.8848,0.91238 12.06522,1.13842 18.0008,0.53735 8.21429,-0.83184 16.43581,-2.66131 24.44882,-4.83604 34.88438,-9.46757 69.41296,-20.48537 104.24335,-30.09087 2.51452,-0.69345 5.30054,-1.20631 7.79137,-0.806 2.52431,0.4057 5.65565,1.30593 7.25405,3.22402 2.87941,3.45528 4.6289,8.40232 6.17938,12.89609 3.73333,10.82033 7.12401,21.93392 9.67206,33.04621 0.67597,2.94802 0.75335,6.32221 0,9.13473 -0.58999,2.20262 -1.98727,4.70139 -4.03002,5.9107 -42.73531,25.2993 -86.92047,48.98684 -130.30419,73.61514 z"
           id="track_old"
           sodipodi:nodetypes="csssssssssssssssssssssssssssssssssssssssssssssssssssssssssssssssssssssssssssssssssssssssssssssssssssssssssssss" />
        <g
           id="g2"
           transform="matrix(0.85602184,0,0,0.85602184,-69.392198,190.43805)">
          <path
             d="m -356.55291,494.57426 0.39147,-0.35297 3.58779,4.84514 -9.63975,13.27554 -0.46781,-0.33968 0.46822,-0.64482 c 0.52636,-0.72488 0.66676,-1.41463 0.4212,-2.06925 -0.1412,-0.37286 -0.70067,-0.91428 -1.67843,-1.62426 l -11.06295,-8.03313 c -1.07046,-0.77729 -1.82624,-1.14586 -2.26736,-1.10572 -0.60955,0.0594 -1.14998,0.41367 -1.62127,1.06268 l -0.46822,0.64481 -0.4678,-0.33969 5.63696,-7.76303 0.46781,0.33969 c -0.66943,0.90422 -1.04877,1.60391 -1.13802,2.09908 -0.0892,0.49521 -0.0479,0.90816 0.12385,1.23886 0.17181,0.33074 0.76766,0.86638 1.78755,1.60695 l 10.77215,7.82197 c 0.6996,0.50801 1.22901,0.78945 1.58824,0.84431 0.25045,0.0274 0.49433,-0.0337 0.73163,-0.1832 0.2373,-0.14951 0.75684,-0.77637 1.55863,-1.88056 l 0.90889,-1.2517 c 0.95479,-1.3149 1.52805,-2.30825 1.71978,-2.98005 0.19172,-0.67178 0.20017,-1.40585 0.0254,-2.20222 -0.17484,-0.79633 -0.63414,-1.79925 -1.37791,-3.00875 z"
             id="path6298"
             style="color:#000000;font-style:normal;font-variant:normal;font-weight:normal;font-stretch:normal;font-size:32px;line-height:100%;font-family:'Times New Roman';-inkscape-font-specification:'Times New Roman';text-align:center;writing-mode:lr-tb;text-anchor:middle;display:inline;overflow:visible;fill:#000000;fill-opacity:1;fill-rule:nonzero;enable-background:accumulate" />
          <path
             d="m -345.74729,489.35092 c -0.27502,1.83597 -0.48666,2.9476 -0.63491,3.3349 -0.226,0.57719 -0.56841,1.08559 -1.02721,1.52518 -0.71454,0.68463 -1.53731,1.00409 -2.46831,0.9584 -0.93099,-0.0457 -1.77844,-0.46717 -2.54233,-1.26445 -0.48284,-0.50394 -0.788,-1.04828 -0.91548,-1.63303 -0.18166,-0.80693 -0.10698,-1.80177 0.22406,-2.98453 0.33103,-1.18274 1.0742,-2.94791 2.2295,-5.29552 l -0.38915,-0.40616 c -0.9873,-1.03042 -1.8283,-1.5807 -2.52302,-1.65082 -0.69472,-0.0701 -1.35422,0.19392 -1.97851,0.79205 -0.47384,0.45403 -0.7274,0.94222 -0.76068,1.46458 -0.0408,0.52959 0.0974,0.95985 0.41444,1.29078 l 0.64954,0.63275 c 0.3315,0.346 0.49896,0.69769 0.50236,1.05507 0.003,0.3574 -0.13779,0.67302 -0.42361,0.94686 -0.27828,0.26665 -0.59949,0.38687 -0.96362,0.36066 -0.36412,-0.0262 -0.70833,-0.20853 -1.03263,-0.54701 -0.61976,-0.64683 -0.85813,-1.55812 -0.71512,-2.73385 0.14302,-1.17571 0.81248,-2.33649 2.00839,-3.48235 0.91762,-0.87918 1.8175,-1.44565 2.69964,-1.6994 0.66718,-0.192 1.34388,-0.14069 2.03011,0.15392 0.44527,0.19372 1.14714,0.79075 2.10561,1.79109 l 3.36186,3.50877 c 0.94405,0.98532 1.54118,1.5709 1.79139,1.75674 0.25019,0.18586 0.45457,0.27496 0.61314,0.26728 0.15856,-0.008 0.29425,-0.0655 0.40708,-0.17363 0.12034,-0.1153 0.20041,-0.24252 0.24023,-0.38165 0.0643,-0.24911 0.10584,-0.81551 0.12474,-1.6992 l 0.60536,0.6318 c 0.23857,1.93537 -0.0257,3.27058 -0.79292,4.00564 -0.36856,0.35312 -0.78441,0.50632 -1.24755,0.45957 -0.46315,-0.0467 -0.99395,-0.37488 -1.5924,-0.98444 z m -0.70264,-0.73334 -3.77264,-3.93749 c -0.70334,1.53949 -1.13041,2.56179 -1.28119,3.0669 -0.27711,0.90027 -0.37057,1.65343 -0.28038,2.25948 0.0902,0.60606 0.34066,1.12344 0.75144,1.55216 0.51887,0.54155 1.11117,0.83602 1.77691,0.8834 0.66573,0.0474 1.2092,-0.1307 1.6304,-0.53427 0.57163,-0.54769 0.96345,-1.64442 1.17546,-3.29018 z"
             id="path6300"
             style="color:#000000;font-style:normal;font-variant:normal;font-weight:normal;font-stretch:normal;font-size:32px;line-height:100%;font-family:'Times New Roman';-inkscape-font-specification:'Times New Roman';text-align:center;writing-mode:lr-tb;text-anchor:middle;display:inline;overflow:visible;fill:#000000;fill-opacity:1;fill-rule:nonzero;enable-background:accumulate" />
          <path
             d="m -324.81695,454.71134 3.19781,6.47253 -0.44768,0.18493 c -1.42017,-1.74631 -2.86479,-2.82884 -4.33386,-3.24761 -1.46909,-0.41873 -2.97865,-0.30795 -4.52868,0.33233 -1.29973,0.53693 -2.33807,1.35187 -3.11505,2.44484 -0.77698,1.093 -1.16805,2.48585 -1.17321,4.17853 -0.005,1.69271 0.43569,3.61254 1.32258,5.75947 0.73177,1.77148 1.65012,3.18975 2.75505,4.25482 1.10493,1.06508 2.371,1.70857 3.79822,1.93047 1.4272,0.22191 2.8725,0.0306 4.3359,-0.57391 1.27083,-0.52497 2.28009,-1.26027 3.02778,-2.20592 0.74767,-0.94563 1.3699,-2.46778 1.86671,-4.56644 l 0.56699,0.10389 c -0.26218,2.14826 -0.8809,3.89718 -1.85616,5.24677 -0.97529,1.3496 -2.3631,2.39625 -4.16345,3.13995 -3.24449,1.34027 -6.25442,1.17484 -9.02977,-0.4963 -2.06834,-1.24189 -3.60361,-3.07591 -4.60583,-5.50206 -0.80734,-1.95439 -1.11101,-3.93088 -0.911,-5.92949 0.20001,-1.99858 0.88189,-3.76514 2.04563,-5.29967 1.16374,-1.5345 2.65541,-2.67759 4.47502,-3.42927 1.41525,-0.58461 2.95442,-0.81469 4.61752,-0.69025 0.49184,0.0448 0.82441,0.0314 0.99772,-0.0402 0.25993,-0.10736 0.4484,-0.29228 0.5654,-0.55477 0.14292,-0.36332 0.17189,-0.79793 0.0869,-1.30383 z"
             id="path6302"
             style="color:#000000;font-style:normal;font-variant:normal;font-weight:normal;font-stretch:normal;font-size:32px;line-height:100%;font-family:'Times New Roman';-inkscape-font-specification:'Times New Roman';text-align:center;writing-mode:lr-tb;text-anchor:middle;display:inline;overflow:visible;fill:#000000;fill-opacity:1;fill-rule:nonzero;enable-background:accumulate" />
          <path
             d="m -313.16595,451.66922 1.84788,10.30437 c 0.91377,-1.45496 1.67217,-2.41907 2.27519,-2.89233 0.60301,-0.47323 1.23775,-0.76961 1.9042,-0.88914 0.79974,-0.1434 1.52623,-0.0462 2.17947,0.29175 0.65323,0.33793 1.20285,0.95371 1.64885,1.84733 0.31247,0.62128 0.62501,1.80342 0.93759,3.54644 l 0.89361,4.98301 c 0.15995,0.89202 0.34113,1.48921 0.54352,1.79156 0.14665,0.2277 0.35588,0.39125 0.62771,0.49066 0.27181,0.0994 0.73581,0.0903 1.39203,-0.0274 l 0.0993,0.55366 -6.92085,1.24112 -0.0993,-0.55367 0.32297,-0.0579 c 0.65619,-0.11767 1.09453,-0.29946 1.31501,-0.54536 0.22046,-0.2459 0.34703,-0.57286 0.3797,-0.98087 0.001,-0.16956 -0.0697,-0.65421 -0.21311,-1.45396 l -0.89361,-4.98301 c -0.27581,-1.53795 -0.53638,-2.53363 -0.78172,-2.98704 -0.24535,-0.45338 -0.56392,-0.7693 -0.95573,-0.94774 -0.39182,-0.17842 -0.8338,-0.22351 -1.32595,-0.13527 -0.50241,0.0901 -1.00141,0.31718 -1.49701,0.6812 -0.49562,0.36404 -1.05016,1.01908 -1.66363,1.96513 l 1.33489,7.44375 c 0.17284,0.9638 0.33423,1.55395 0.48418,1.77046 0.14994,0.21652 0.38527,0.37804 0.70599,0.48456 0.32071,0.10652 0.83992,0.0954 1.55765,-0.0333 l 0.0993,0.55366 -6.98237,1.25215 -0.0993,-0.55367 c 0.62544,-0.11215 1.10012,-0.29782 1.42405,-0.55698 0.18667,-0.1393 0.31579,-0.36353 0.38734,-0.67268 0.0716,-0.30915 0.0283,-0.90461 -0.12986,-1.78638 l -2.28641,-12.74974 c -0.28868,-1.60972 -0.50456,-2.59225 -0.64765,-2.94759 -0.14309,-0.3553 -0.30605,-0.58535 -0.48888,-0.69016 -0.18282,-0.10477 -0.40752,-0.13327 -0.67411,-0.0855 -0.21531,0.0386 -0.5492,0.18317 -1.00168,0.43362 l -0.31185,-0.49968 3.90512,-2.47822 z"
             id="path6304"
             style="color:#000000;font-style:normal;font-variant:normal;font-weight:normal;font-stretch:normal;font-size:32px;line-height:100%;font-family:'Times New Roman';-inkscape-font-specification:'Times New Roman';text-align:center;writing-mode:lr-tb;text-anchor:middle;display:inline;overflow:visible;fill:#000000;fill-opacity:1;fill-rule:nonzero;enable-background:accumulate" />
          <path
             d="m -289.64009,469.07108 c -1.38731,1.23361 -2.26194,1.95163 -2.62388,2.15404 -0.54329,0.29844 -1.13189,0.46947 -1.76581,0.51311 -0.98725,0.068 -1.82368,-0.21379 -2.50929,-0.84528 -0.68561,-0.63149 -1.06633,-1.49801 -1.14217,-2.59957 -0.0479,-0.69627 0.0665,-1.30974 0.34317,-1.84042 0.37742,-0.73598 1.07207,-1.45205 2.08394,-2.14819 1.01187,-0.69613 2.71331,-1.57548 5.10432,-2.63804 l -0.0386,-0.56117 c -0.098,-1.4237 -0.3913,-2.38499 -0.87983,-2.88388 -0.48855,-0.49887 -1.16409,-0.71861 -2.02662,-0.65925 -0.65471,0.0451 -1.16215,0.25752 -1.52233,0.63731 -0.37058,0.38053 -0.54013,0.79941 -0.50865,1.25665 l 0.0934,0.90196 c 0.0329,0.47805 -0.0638,0.85537 -0.29013,1.13197 -0.22633,0.27663 -0.53694,0.42853 -0.93184,0.4557 -0.38451,0.0265 -0.70817,-0.087 -0.97098,-0.34036 -0.26282,-0.25338 -0.41032,-0.61389 -0.44251,-1.08154 -0.0615,-0.89371 0.33921,-1.74616 1.2022,-2.55736 0.86299,-0.81117 2.12066,-1.27363 3.773,-1.3874 1.26782,-0.0873 2.3217,0.0542 3.16162,0.42449 0.6353,0.27996 1.12205,0.75286 1.46025,1.41869 0.21781,0.434 0.3743,1.34206 0.46946,2.72419 l 0.33373,4.8479 c 0.0937,1.36137 0.1771,2.19354 0.25018,2.49653 0.0731,0.30299 0.17291,0.50233 0.29959,0.59802 0.12665,0.0957 0.26792,0.13818 0.42381,0.12745 0.16626,-0.0115 0.30925,-0.0578 0.42896,-0.13917 0.20892,-0.15012 0.60369,-0.5584 1.1843,-1.22485 l 0.0601,0.87293 c -1.05661,1.63894 -2.11491,2.49489 -3.17489,2.56786 -0.50922,0.0351 -0.92667,-0.11371 -1.25235,-0.44629 -0.32571,-0.33258 -0.52308,-0.92459 -0.59213,-1.77603 z m -0.0697,-1.01322 -0.37451,-5.44025 c -1.52629,0.73156 -2.50911,1.24297 -2.94847,1.53424 -0.7895,0.51378 -1.34374,1.03223 -1.66273,1.55537 -0.31899,0.52315 -0.4581,1.08089 -0.41732,1.67323 0.0515,0.74824 0.31768,1.35378 0.79852,1.81664 0.48084,0.46286 1.01224,0.67426 1.5942,0.6342 0.78979,-0.0544 1.79323,-0.64551 3.01031,-1.77343 z"
             id="path6306"
             style="color:#000000;font-style:normal;font-variant:normal;font-weight:normal;font-stretch:normal;font-size:32px;line-height:100%;font-family:'Times New Roman';-inkscape-font-specification:'Times New Roman';text-align:center;writing-mode:lr-tb;text-anchor:middle;display:inline;overflow:visible;fill:#000000;fill-opacity:1;fill-rule:nonzero;enable-background:accumulate" />
          <path
             d="m -284.02467,457.76626 4.46296,-1.63399 0.59342,0.0197 -0.11101,3.3419 c 0.78101,-1.23515 1.5521,-2.09284 2.31326,-2.57306 0.76114,-0.48019 1.55295,-0.70663 2.37542,-0.67932 1.4367,0.0477 2.61528,0.64969 3.53575,1.80587 1.13077,1.41333 1.65951,3.22355 1.58621,5.43066 -0.082,2.46739 -0.8577,4.48441 -2.32717,6.05107 -1.20995,1.28346 -2.69985,1.89579 -4.4697,1.837 -0.77041,-0.0256 -1.43308,-0.15703 -1.988,-0.39434 -0.41126,-0.16999 -0.86937,-0.49788 -1.37435,-0.98367 l -0.14473,4.35698 c -0.0325,0.97862 0.007,1.60266 0.1176,1.87212 0.11091,0.26945 0.31212,0.48719 0.60365,0.65321 0.29152,0.16602 0.82769,0.26199 1.60852,0.28794 l -0.0192,0.5778 -7.49586,-0.24899 0.0192,-0.5778 0.39041,0.013 c 0.57225,0.0294 1.0652,-0.0636 1.47883,-0.27919 0.20161,-0.10795 0.36131,-0.28765 0.4791,-0.53908 0.11779,-0.25144 0.19397,-0.8977 0.22855,-1.93879 l 0.44922,-13.52379 c 0.0308,-0.92656 0.009,-1.51616 -0.0663,-1.7688 -0.075,-0.25262 -0.20151,-0.44443 -0.37955,-0.57542 -0.17804,-0.13097 -0.42323,-0.20165 -0.73555,-0.21204 -0.24987,-0.008 -0.56982,0.054 -0.95986,0.18699 z m 4.91477,2.649 -0.17741,5.3408 c -0.0384,1.15562 -0.0168,1.91717 0.0648,2.28466 0.12569,0.60868 0.46462,1.15148 1.01681,1.62841 0.55217,0.47693 1.26031,0.72974 2.12443,0.75844 1.04108,0.0346 1.89785,-0.34343 2.57031,-1.13404 0.87855,-1.0339 1.34982,-2.51386 1.4138,-4.43989 0.0726,-2.18628 -0.35044,-3.88355 -1.26916,-5.09181 -0.63933,-0.83418 -1.41707,-1.26648 -2.33323,-1.29693 -0.49973,-0.0166 -0.9984,0.0919 -1.496,0.32552 -0.38103,0.17496 -1.01915,0.71657 -1.91437,1.62484 z"
             id="path6308"
             style="color:#000000;font-style:normal;font-variant:normal;font-weight:normal;font-stretch:normal;font-size:32px;line-height:100%;font-family:'Times New Roman';-inkscape-font-specification:'Times New Roman';text-align:center;writing-mode:lr-tb;text-anchor:middle;display:inline;overflow:visible;fill:#000000;fill-opacity:1;fill-rule:nonzero;enable-background:accumulate" />
          <path
             d="m -263.83093,462.96998 c -0.30226,2.10342 -0.0205,3.82512 0.8453,5.1651 0.86578,1.33998 1.99513,2.10657 3.38805,2.29976 0.9286,0.1288 1.7714,-0.0146 2.52838,-0.43016 0.75697,-0.41556 1.45348,-1.21022 2.08952,-2.38398 l 0.43685,0.37609 c -0.41274,1.3835 -1.22066,2.58336 -2.42375,3.59958 -1.20311,1.01623 -2.58882,1.41558 -4.15713,1.19806 -1.70246,-0.23613 -3.06792,-1.10119 -4.09637,-2.59519 -1.02847,-1.494 -1.38743,-3.36049 -1.07688,-5.59948 0.3363,-2.42469 1.22019,-4.22922 2.65169,-5.41359 1.43148,-1.18435 3.08615,-1.6463 4.96402,-1.38586 1.58894,0.22039 2.82153,0.92506 3.69776,2.11399 0.87621,1.18895 1.19267,2.66044 0.94941,4.41447 z m 0.12451,-0.89766 6.56218,0.91016 c 0.0743,-0.91512 0.0547,-1.56986 -0.0588,-1.96421 -0.17781,-0.61357 -0.49919,-1.12086 -0.96412,-1.52188 -0.46495,-0.401 -0.97601,-0.64015 -1.53316,-0.71744 -0.8564,-0.11876 -1.66865,0.10773 -2.43677,0.67949 -0.76813,0.57178 -1.29123,1.44307 -1.56929,2.61388 z"
             id="path6310"
             style="color:#000000;font-style:normal;font-variant:normal;font-weight:normal;font-stretch:normal;font-size:32px;line-height:100%;font-family:'Times New Roman';-inkscape-font-specification:'Times New Roman';text-align:center;writing-mode:lr-tb;text-anchor:middle;display:inline;overflow:visible;fill:#000000;fill-opacity:1;fill-rule:nonzero;enable-background:accumulate" />
          <path
             d="m -244.65122,452.56331 -3.34254,18.6878 c -0.15773,0.88184 -0.19819,1.47778 -0.12136,1.78781 0.0768,0.31004 0.23523,0.56324 0.47524,0.75961 0.24001,0.19636 0.72403,0.35965 1.45206,0.48987 l -0.099,0.55371 -6.90602,-1.23522 0.099,-0.55372 c 0.64599,0.11555 1.09883,0.12776 1.35852,0.0366 0.25968,-0.0911 0.48368,-0.27856 0.67201,-0.56234 0.18831,-0.28377 0.36042,-0.86145 0.51632,-1.73304 l 2.28889,-12.79691 c 0.28427,-1.58934 0.42307,-2.57245 0.41641,-2.94932 -0.007,-0.37684 -0.0776,-0.64613 -0.21265,-0.80787 -0.1351,-0.16171 -0.32569,-0.26459 -0.57178,-0.30862 -0.26661,-0.0477 -0.61966,-0.0262 -1.05915,0.0645 l -0.16519,-0.5851 4.5071,-0.97162 z"
             id="path6312"
             style="color:#000000;font-style:normal;font-variant:normal;font-weight:normal;font-stretch:normal;font-size:32px;line-height:100%;font-family:'Times New Roman';-inkscape-font-specification:'Times New Roman';text-align:center;writing-mode:lr-tb;text-anchor:middle;display:inline;overflow:visible;fill:#000000;fill-opacity:1;fill-rule:nonzero;enable-background:accumulate" />
          <path
             d="m -235.81239,454.19834 -3.43792,18.67049 c -0.16223,0.88102 -0.20573,1.47675 -0.13048,1.78717 0.0752,0.31042 0.23235,0.56443 0.47136,0.76202 0.23899,0.19759 0.72217,0.36335 1.44954,0.49728 l -0.10187,0.5532 -6.89963,-1.27047 0.10187,-0.5532 c 0.64539,0.11884 1.09816,0.13337 1.35831,0.0436 0.26014,-0.0898 0.4851,-0.27609 0.67487,-0.55891 0.18977,-0.2828 0.36482,-0.8596 0.52517,-1.73038 l 2.35419,-12.78506 c 0.29238,-1.58787 0.4362,-2.57025 0.43147,-2.94715 -0.005,-0.37687 -0.0743,-0.64652 -0.20852,-0.80895 -0.13427,-0.1624 -0.32434,-0.26624 -0.5702,-0.31154 -0.26636,-0.049 -0.61952,-0.0293 -1.05947,0.0591 l -0.1622,-0.58594 4.51201,-0.94859 z"
             id="path6314"
             style="color:#000000;font-style:normal;font-variant:normal;font-weight:normal;font-stretch:normal;font-size:32px;line-height:100%;font-family:'Times New Roman';-inkscape-font-specification:'Times New Roman';text-align:center;writing-mode:lr-tb;text-anchor:middle;display:inline;overflow:visible;fill:#000000;fill-opacity:1;fill-rule:nonzero;enable-background:accumulate" />
          <path
             d="m -232.16843,468.38238 c -0.34648,2.0966 -0.10102,3.82385 0.73637,5.18176 0.83738,1.35791 1.95034,2.1481 3.33888,2.37058 0.92569,0.14832 1.77131,0.0227 2.53688,-0.37684 0.76555,-0.39954 1.47863,-1.17936 2.13924,-2.33946 l 0.42884,0.38519 c -0.44178,1.37451 -1.27478,2.5571 -2.49899,3.54777 -1.22424,0.99067 -2.61805,1.36076 -4.18144,1.11027 -1.69711,-0.27191 -3.04405,-1.16553 -4.04083,-2.68085 -0.99678,-1.51532 -1.31637,-3.38895 -0.95876,-5.62091 0.38727,-2.41707 1.30896,-4.2026 2.76507,-5.35657 1.45611,-1.15395 3.12014,-1.58096 4.9921,-1.28105 1.58396,0.2538 2.80143,0.98426 3.65244,2.19137 0.85098,1.20713 1.1364,2.68496 0.85626,4.43348 z m 0.14337,-0.89483 6.54157,1.0481 c 0.0936,-0.91335 0.0877,-1.56836 -0.0175,-1.96501 -0.16486,-0.61718 -0.47548,-1.13112 -0.93187,-1.54184 -0.4564,-0.4107 -0.96231,-0.66055 -1.51772,-0.74955 -0.8537,-0.13677 -1.67054,0.0726 -2.45053,0.62803 -0.78,0.55549 -1.32132,1.41557 -1.62397,2.58027 z"
             id="path6316"
             style="color:#000000;font-style:normal;font-variant:normal;font-weight:normal;font-stretch:normal;font-size:32px;line-height:100%;font-family:'Times New Roman';-inkscape-font-specification:'Times New Roman';text-align:center;writing-mode:lr-tb;text-anchor:middle;display:inline;overflow:visible;fill:#000000;fill-opacity:1;fill-rule:nonzero;enable-background:accumulate" />
          <path
             style="fill:none;stroke:none"
             d="m -361.2557,511.66655 c 6.75256,-11.53257 19.22951,-25.32396 32.6377,-31.81855 13.97664,-6.76994 31.59169,-8.7893 47.49557,-8.98564 18.75505,-0.23154 37.65415,5.13465 56.48122,7.70198"
             id="path5850"
             sodipodi:nodetypes="csss" />
        </g>
        <g
           style="display:inline"
           transform="matrix(-0.36286333,1.0416868,-1.0416868,-0.36286333,2040.249,-562.76452)"
           id="g4801"
           clip-path="url(#clipPath9716)">
          <use
             x="0"
             y="0"
             xlink:href="#path3463"
             id="use5032"
             style="stroke:#ffffff;stroke-width:6.20824;stroke-miterlimit:8;stroke-dasharray:none;filter:url(#filter5277)"
             width="744.09448"
             height="1052.3622" />
          <path
             clip-path="url(#clipPath3494)"
             transform="matrix(-0.358939,0.3679125,-1.1151124,-1.0879142,3617.8586,1699.8985)"
             d="m 1695.937,1398.5206 -24.4812,0 12.2406,-21.2013 z"
             inkscape:randomized="0"
             inkscape:rounded="0"
             inkscape:flatsided="true"
             sodipodi:arg2="1.5707963"
             sodipodi:arg1="0.52359878"
             sodipodi:r2="7.0671172"
             sodipodi:r1="14.134234"
             sodipodi:cy="1391.4535"
             sodipodi:cx="1683.6964"
             sodipodi:sides="3"
             id="path3463"
             style="fill:#ff0000;fill-opacity:1"
             sodipodi:type="star" />
          <rect
             clip-path="url(#clipPath3490)"
             ry="0"
             transform="rotate(-135.91755)"
             y="376.01733"
             x="-1620.8837"
             height="53.588943"
             width="13.041035"
             id="rect3457"
             style="display:inline;fill:url(#pattern4264);fill-opacity:1;stroke:#000000;stroke-width:0.77603;stroke-linecap:round;stroke-linejoin:round;stroke-miterlimit:4;stroke-dasharray:none;stroke-dashoffset:0;stroke-opacity:1" />
          <rect
             style="fill:url(#pattern4256);stroke:none"
             width="0"
             height="0"
             x="1593.7246"
             y="910.57043"
             id="rect4262" />
        </g>
      </g>
    </g>
    <path
       style="fill:none;stroke:#ff0000;stroke-width:1.88976;stroke-miterlimit:4.8;stroke-opacity:1"
       d="M 672.84674,456.55003 C 642.334,505.57346 557.13997,646.10813 539.46806,675.0966 c -17.67191,28.98847 -80.75568,109.28532 -92.20711,121.86396 -8.9409,9.82101 -95.94168,99.91187 -148.80743,112.86162 -21.8884,5.36168 -53.81464,4.26256 -80.779,4.85637 -36.79242,0.81025 -76.06902,0.54179 -84.81051,4.33602 -7.55144,3.27769 -10.77292,14.65013 -12.90643,25.7273 -2.07214,10.75856 -6.65792,23.41373 -13.08571,29.24382 -6.45798,5.85747 -56.160494,7.41528 -96.210292,8.33733 -33.713217,0.77617 -66.651962,4.05866 -74.246728,4.22025 -16.61701,0.35356 -39.24443,12.37437 -46.31549,15.20283 -7.07107,2.8284 -46.3155,27.9307 -74.95332,27.5771 -28.63783,-0.3535 -54.09367,-6.0104 -64.70027,-35.70887 -10.60661,-29.69848 1.06066,-55.86143 10.6066,-65.76093 9.54594,-9.89949 89.44901,-44.54772 140.36069,-53.033 50.91169,-8.48529 138.23938,-18.73833 153.44218,-24.74874 15.20279,-6.01041 26.16295,-25.45585 25.45584,-43.48707 -0.70711,-18.03122 -20.5061,-36.416 -32.17336,-39.24443 -11.66726,-2.82842 -44.90128,-13.78858 -59.04341,-13.08147 -14.14214,0.70711 -59.75053,8.48528 -73.18556,13.43503 -13.43503,4.94975 -209.3036,79.54951 -213.8998,81.31728 -4.59619,1.76776 -46.16583,21.22024 -56.55966,18.20495 -10.39383,-3.01529 -21.95519,-44.97568 -19.78642,-52.31029 1.99264,-6.73896 83.7707,-50.74748 95.08441,-55.34367 11.31371,-4.59619 299.10617,-118.08683 299.10617,-118.08683 0,0 197.59728,-76.2745 206.47519,-87.32769 8.8779,-11.05319 13.66667,-28.63604 7.42461,-38.89087 -7.42461,-12.1976 -3.05329,-29.36479 3.18198,-38.89088 3.18199,-4.86136 100.40917,-99.3485 100.40917,-99.3485 0,0 95.44946,-91.3691 112.9603,-93.69165 17.51084,-2.32255 38.00699,8.13173 43.66385,15.55635 5.65685,7.42462 16.26345,37.83021 18.38478,44.54773 2.12132,6.71751 12.24157,35.47493 32.88046,41.01219 28.99138,7.77818 49.49745,0.70711 83.08505,-34.29468 33.5876,-35.00178 73.71583,-76.89786 82.55467,-77.07463 9.19239,-0.35356 44.86037,37.70109 46.76373,43.34429 2.27317,6.73961 -31.7377,57.06487 -36.3339,63.78238 -4.5962,6.71752 -17.94386,27.3274 -48.4566,76.35083 z"
       id="track"
       sodipodi:nodetypes="zzssssssssssssssssssszssczssczsssscssz" />
  </g>
</svg>
