<svg width="64" height="64" viewBox="0 0 64 64" fill="none" xmlns="http://www.w3.org/2000/svg">
    <!-- Sun (partially hidden behind cloud) -->
    <circle cx="24" cy="24" r="10" fill="#FFC107"/>
    <line x1="24" y1="6" x2="24" y2="14" stroke="#FFC107" stroke-width="3" stroke-linecap="round"/>
    <line x1="24" y1="34" x2="24" y2="42" stroke="#FFC107" stroke-width="3" stroke-linecap="round"/>
    <line x1="6" y1="24" x2="14" y2="24" stroke="#FFC107" stroke-width="3" stroke-linecap="round"/>
    <line x1="34" y1="24" x2="42" y2="24" stroke="#FFC107" stroke-width="3" stroke-linecap="round"/>
    <line x1="13.5" y1="13.5" x2="18.5" y2="18.5" stroke="#FFC107" stroke-width="3" stroke-linecap="round"/>
    <line x1="34.5" y1="34.5" x2="29.5" y2="29.5" stroke="#FFC107" stroke-width="3" stroke-linecap="round"/>
    <line x1="13.5" y1="34.5" x2="18.5" y2="29.5" stroke="#FFC107" stroke-width="3" stroke-linecap="round"/>
    <line x1="34.5" y1="13.5" x2="29.5" y2="18.5" stroke="#FFC107" stroke-width="3" stroke-linecap="round"/>
  
    <!-- Cloud -->
    <path d="M40 40H20a8 8 0 0 1 0-16 10 10 0 0 1 20 0 6 6 0 0 1 0 12h-4" 
          fill="#90A4AE"/>
  </svg>
  